<svg width="32" height="32" viewBox="0 0 1000 1000"  xmlns="http://www.w3.org/2000/svg">

<path fill-rule="evenodd" clip-rule="evenodd"  d="M406.3 343.8L406.3 226.6C406.3 222.2 402.8 218.8 398.4 218.8L226.6 218.8C222.2 218.8 218.8 222.2 218.8 226.6L218.8 343.8 406.3 343.8ZM406.3 375L218.8 375 218.8 398.4C218.8 402.8 222.2 406.3 226.6 406.3L398.4 406.3C402.8 406.3 406.3 402.8 406.3 398.4L406.3 375ZM781.3 343.8L781.3 226.6C781.3 222.2 777.8 218.8 773.4 218.8L601.6 218.8C597.2 218.8 593.8 222.2 593.8 226.6L593.8 343.8 781.3 343.8ZM781.3 375L593.8 375 593.8 398.4C593.8 402.8 597.2 406.3 601.6 406.3L773.4 406.3C777.8 406.3 781.3 402.8 781.3 398.4L781.3 375ZM406.3 718.8L406.3 601.6C406.3 597.2 402.8 593.8 398.4 593.8L226.6 593.8C222.2 593.8 218.8 597.2 218.8 601.6L218.8 718.8 406.3 718.8ZM406.3 750L218.8 750 218.8 773.4C218.8 777.8 222.2 781.3 226.6 781.3L398.4 781.3C402.8 781.3 406.3 777.8 406.3 773.4L406.3 750ZM421.8 843.8L203.1 843.8C177.2 843.8 156.2 822.8 156.2 796.9L156.2 578.1C156.2 552.2 177.2 531.3 203.1 531.3L421.8 531.3C447.7 531.3 468.7 552.2 468.7 578.1L468.7 796.9C468.7 822.8 447.7 843.8 421.8 843.8ZM796.8 468.8L578.1 468.8C552.2 468.8 531.2 447.8 531.2 421.9L531.2 203.1C531.2 177.2 552.2 156.3 578.1 156.3L796.8 156.3C822.7 156.3 843.7 177.2 843.7 203.1L843.7 421.9C843.7 447.8 822.7 468.8 796.8 468.8ZM421.8 468.8L203.1 468.8C177.2 468.8 156.2 447.8 156.2 421.9L156.2 203.1C156.2 177.2 177.2 156.3 203.1 156.3L421.8 156.3C447.7 156.3 468.7 177.2 468.7 203.1L468.7 421.9C468.7 447.8 447.7 468.8 421.8 468.8ZM781.3 843.8L781.3 812.5C788.1 812.5 794.8 810.3 800.3 806.1L829.2 821.4C817.3 835.6 799.7 843.8 781.3 843.8ZM750 843.8L687.5 843.8 687.5 812.5 750 812.5 750 843.8ZM656.3 843.8L596.1 843.8 614.2 812.5 656.3 812.5 656.3 843.8ZM564.3 836.4C544 825.5 531.3 804.3 531.3 781.3L562.5 781.3C562.5 793.2 569.2 804.1 579.9 809.4L564.3 836.4 564.3 836.4ZM842.7 793.2L812.5 777.2 812.5 714.1 843.8 714.1 843.8 781.3C843.8 785.2 843.4 789.2 842.6 793.1L842.7 793.2ZM562.5 750L531.3 750 531.3 687.5 562.5 687.5 562.5 750ZM843.8 682.8L812.5 682.8 812.5 620.3 843.8 620.3 843.8 682.8ZM562.5 656.3L531.3 656.3 531.3 597.8 562.5 608.6 562.5 656.3ZM843.8 589.1L812.1 589.1C810 575.3 799.1 564.6 785.3 562.8L801.6 534.7C825.2 542.7 841.8 564.1 843.8 589L843.8 589.1ZM567.4 577.2L537.5 566.8C547.9 545.2 569.7 531.4 593.8 531.3L593.8 562.5C583 562.5 573 568 567.3 577.1L567.4 577.2ZM749.4 562.5L705.2 562.5 705.2 531.3 767.4 531.3 749.4 562.5 749.4 562.5ZM674 562.5L625 562.5 625 531.3 674 531.3 674 562.5Z" />
</svg>
