<svg width="32" height="32" viewBox="0 0 1000 1000"  xmlns="http://www.w3.org/2000/svg">

<path fill-rule="evenodd" clip-rule="evenodd"  d="M250 656.2C198.2 656.2 156.2 614.2 156.2 562.5L156.2 250C156.3 198.2 198.2 156.3 250 156.2L562.5 156.2C614.2 156.2 656.2 198.2 656.2 250L656.2 468.7 656.2 500 656.2 562.5C656.2 614.2 614.2 656.2 562.5 656.2L250 656.2ZM593.7 468.7L593.7 250C593.7 232.7 579.7 218.7 562.5 218.7L250 218.7C232.7 218.7 218.7 232.7 218.7 250L218.7 468.7 593.7 468.7ZM218.7 562.5C218.7 579.7 232.7 593.7 250 593.7L562.5 593.7C579.7 593.7 593.7 579.7 593.7 562.5L593.7 500 218.7 500 218.7 562.5ZM718.8 812.5L687.5 812.5 687.5 750 718.8 750C736 750 750 736 750 718.8L750 687.5 812.5 687.5 812.5 718.8C812.5 770.5 770.5 812.5 718.8 812.5ZM625 812.5L500 812.5 500 750 625 750 625 812.5ZM437.5 812.5L406.3 812.5C354.5 812.5 312.5 770.5 312.5 718.8L312.5 687.5 375 687.5 375 718.8C375 736 389 750 406.3 750L437.5 750 437.5 812.5ZM812.5 625L750 625 750 500 812.5 500 812.5 625ZM812.5 437.5L750 437.5 750 406.3C750 389 736 375 718.8 375L687.5 375 687.5 312.5 718.8 312.5C770.5 312.5 812.5 354.5 812.5 406.3L812.5 437.5Z" />
</svg>
