<svg width="32" height="32" viewBox="0 0 32 32"  xmlns="http://www.w3.org/2000/svg">
<path fill-rule="evenodd" clip-rule="evenodd" d="M16 24C20.4183 24 24 20.4183 24 16C24 11.5817 20.4183 8 16 8C11.5817 8 8 11.5817 8 16C8 20.4183 11.5817 24 16 24ZM17.1188 12.9186C17.1302 12.9244 17.1421 12.929 17.1545 12.9321H17.2141C17.2892 12.9314 17.3559 12.8838 17.3809 12.8129L17.9768 11.2159C17.9973 11.1193 17.9357 11.0244 17.8391 11.0039C17.7603 10.9872 17.6801 11.0252 17.6431 11.0967L17.0472 12.6937C17.0049 12.7756 17.037 12.8763 17.1188 12.9186ZM18.1768 13.781C18.1077 13.8419 18.0023 13.8353 17.9413 13.7662C17.8732 13.6966 17.8732 13.5854 17.9413 13.5159L19.2881 12.1692C19.2982 12.1556 19.3103 12.1436 19.3238 12.1334C19.4028 12.0742 19.5149 12.0902 19.5741 12.1692C19.6333 12.2481 19.6173 12.3602 19.5383 12.4194L18.1916 13.7662C18.187 13.7714 18.1821 13.7763 18.1768 13.781ZM13.1801 20.3333L11.6666 18.8198L12.3745 18.1119L13.888 19.6254L13.1801 20.3333ZM20.6704 13.8019C20.6763 13.8133 20.6808 13.8252 20.6839 13.8376C20.7065 13.9269 20.6525 14.0176 20.5631 14.0403L18.9661 14.6362H18.9065C18.8314 14.6355 18.7648 14.5878 18.7397 14.517C18.7377 14.5127 18.736 14.5084 18.7344 14.504C18.7033 14.4172 18.7483 14.3217 18.835 14.2905L20.444 13.6947C20.4505 13.6918 20.4572 13.6895 20.464 13.6875C20.5526 13.6621 20.645 13.7133 20.6704 13.8019ZM15.3431 12.3599C15.2464 12.2676 15.0942 12.2676 14.9975 12.3599C14.9125 12.4549 14.9125 12.5986 14.9975 12.6936L15.5696 13.2538L12.602 17.8303L14.1751 19.4035L14.7114 19.0459L15.796 20.1305C15.84 20.1754 15.9 20.2011 15.9628 20.202C16.0245 20.1961 16.0829 20.1711 16.1297 20.1305L17.965 18.2951C18.01 18.2511 18.0356 18.1911 18.0366 18.1283C18.0389 18.0613 18.013 17.9964 17.965 17.9495L17.3572 17.3417L18.7516 16.4359L19.3118 17.008C19.3558 17.0529 19.4157 17.0786 19.4786 17.0795C19.5456 17.0819 19.6105 17.0559 19.6574 17.008C19.7392 16.9073 19.7392 16.763 19.6574 16.6623L15.3431 12.3599ZM17.4526 18.1282L15.9629 19.618L15.1286 18.7837L16.9401 17.6039L17.4526 18.1282Z" />
</svg>
