<svg width="24" height="24" viewBox="0 0 24 24" fill="none" xmlns="http://www.w3.org/2000/svg">
<mask id="mask0_4041_63273" style="mask-type:alpha" maskUnits="userSpaceOnUse" x="0" y="0" width="24" height="24">
<rect width="24" height="24" fill="#D9D9D9"/>
</mask>
<g mask="url(#mask0_4041_63273)">
<path d="M12.1 21.6244C10.7 21.6244 9.3875 21.3578 8.1625 20.8244C6.9375 20.2911 5.87083 19.5703 4.9625 18.6619C4.05417 17.7536 3.33333 16.6869 2.8 15.4619C2.26667 14.2369 2 12.9244 2 11.5244C2 9.39109 2.6 7.45775 3.8 5.72442C5 3.99109 6.60833 2.77442 8.625 2.07442C8.99167 1.94109 9.33333 1.98692 9.65 2.21192C9.96667 2.43692 10.1167 2.74109 10.1 3.12442C10.05 4.54109 10.275 5.89109 10.775 7.17442C11.275 8.45775 12.025 9.59942 13.025 10.5994C14.025 11.5994 15.1667 12.3494 16.45 12.8494C17.7333 13.3494 19.0833 13.5744 20.5 13.5244C20.9333 13.5078 21.2542 13.6536 21.4625 13.9619C21.6708 14.2703 21.7083 14.6161 21.575 14.9994C20.8417 16.9994 19.6125 18.6036 17.8875 19.8119C16.1625 21.0203 14.2333 21.6244 12.1 21.6244ZM12.1 19.6244C13.5667 19.6244 14.925 19.2578 16.175 18.5244C17.425 17.7911 18.4083 16.7828 19.125 15.4994C17.6917 15.3661 16.3333 15.0036 15.05 14.4119C13.7667 13.8203 12.6167 13.0161 11.6 11.9994C10.5833 10.9828 9.775 9.83275 9.175 8.54942C8.575 7.26609 8.21667 5.90775 8.1 4.47442C6.81667 5.19109 5.8125 6.17859 5.0875 7.43692C4.3625 8.69525 4 10.0578 4 11.5244C4 13.7744 4.7875 15.6869 6.3625 17.2619C7.9375 18.8369 9.85 19.6244 12.1 19.6244Z" fill="black"/>
</g>
</svg>
