<svg width="24" height="24" viewBox="0 0 24 24" fill="none" xmlns="http://www.w3.org/2000/svg">
<mask id="mask0_4041_63267" style="mask-type:alpha" maskUnits="userSpaceOnUse" x="0" y="0" width="24" height="24">
<rect width="24" height="24" fill="#D9D9D9"/>
</mask>
<g mask="url(#mask0_4041_63267)">
<path d="M4 22C3.45 22 2.97917 21.8042 2.5875 21.4125C2.19583 21.0208 2 20.55 2 20V9C2 8.45 2.19583 7.97917 2.5875 7.5875C2.97917 7.19583 3.45 7 4 7H8V5C8 4.45 8.19583 3.97917 8.5875 3.5875C8.97917 3.19583 9.45 3 10 3H14C14.55 3 15.0208 3.19583 15.4125 3.5875C15.8042 3.97917 16 4.45 16 5V7H20C20.55 7 21.0208 7.19583 21.4125 7.5875C21.8042 7.97917 22 8.45 22 9V20C22 20.55 21.8042 21.0208 21.4125 21.4125C21.0208 21.8042 20.55 22 20 22H4ZM10 7H14V5H10V7ZM20 16H15V17C15 17.2833 14.9042 17.5208 14.7125 17.7125C14.5208 17.9042 14.2833 18 14 18H10C9.71667 18 9.47917 17.9042 9.2875 17.7125C9.09583 17.5208 9 17.2833 9 17V16H4V20H20V16ZM11 16H13V14H11V16ZM4 14H9V13C9 12.7167 9.09583 12.4792 9.2875 12.2875C9.47917 12.0958 9.71667 12 10 12H14C14.2833 12 14.5208 12.0958 14.7125 12.2875C14.9042 12.4792 15 12.7167 15 13V14H20V9H4V14Z" fill="black"/>
</g>
</svg>
