<svg width="24" height="24" viewBox="0 0 24 24" fill="none" xmlns="http://www.w3.org/2000/svg">
<mask id="mask0_5687_108460" style="mask-type:alpha" maskUnits="userSpaceOnUse" x="0" y="0" width="24" height="24">
<rect width="24" height="24" fill="#D9D9D9"/>
</mask>
<g mask="url(#mask0_5687_108460)">
<path d="M2 21.0009V18.0009C2 17.7842 2.03333 17.5759 2.1 17.3759C2.16667 17.1759 2.26667 16.9842 2.4 16.8009L10.75 5.55091L9.6 4.00091C9.51667 3.88424 9.45833 3.76341 9.425 3.63841C9.39167 3.51341 9.38333 3.38841 9.4 3.26341C9.41667 3.13841 9.45833 3.01758 9.525 2.90091C9.59167 2.78424 9.68333 2.68424 9.8 2.60091C10.0333 2.43424 10.2833 2.36758 10.55 2.40091C10.8167 2.43424 11.0333 2.56758 11.2 2.80091L12 3.87591L12.8 2.80091C12.9667 2.56758 13.1833 2.43424 13.45 2.40091C13.7167 2.36758 13.9667 2.43424 14.2 2.60091C14.4333 2.76758 14.5667 2.98424 14.6 3.25091C14.6333 3.51758 14.5667 3.76758 14.4 4.00091L13.25 5.55091L21.6 16.8009C21.7333 16.9842 21.8333 17.1759 21.9 17.3759C21.9667 17.5759 22 17.7842 22 18.0009V21.0009C22 21.2842 21.9042 21.5217 21.7125 21.7134C21.5208 21.9051 21.2833 22.0009 21 22.0009H3C2.71667 22.0009 2.47917 21.9051 2.2875 21.7134C2.09583 21.5217 2 21.2842 2 21.0009ZM12 7.22591L4 18.0009V20.0009H7L11.175 14.1509C11.375 13.8676 11.65 13.7259 12 13.7259C12.35 13.7259 12.625 13.8676 12.825 14.1509L17 20.0009H20V18.0009L12 7.22591ZM9.45 20.0009H14.55L12 16.4509L9.45 20.0009Z" fill="#1C1B1F"/>
</g>
</svg>
