<svg width="32" height="32" viewBox="0 0 1000 1000"  xmlns="http://www.w3.org/2000/svg">

<path fill-rule="evenodd" clip-rule="evenodd"  d="M500 812.5C327.4 812.5 187.5 672.6 187.5 500 187.5 327.4 327.4 187.5 500 187.5 672.6 187.5 812.5 327.4 812.5 500 812.5 672.6 672.6 812.5 500 812.5ZM500 250C361.9 250 250 361.9 250 500 250 638.1 361.9 750 500 750 638.1 750 750 638.1 750 500 750 433.7 723.7 370.1 676.8 323.2 629.9 276.3 566.3 250 500 250ZM500 708.3C384.9 708.3 291.7 615.1 291.7 500 291.7 384.9 384.9 291.7 500 291.7 615.1 291.7 708.3 384.9 708.3 500 708.4 555.3 686.4 608.3 647.3 647.3 608.3 686.4 555.3 708.4 500 708.3L500 708.3ZM500 312.5C396.4 312.5 312.5 396.4 312.5 500 312.5 603.6 396.4 687.5 500 687.5 603.6 687.5 687.5 603.6 687.5 500 687.5 396.4 603.6 312.5 500 312.5L500 312.5ZM552.1 479.2C571 478.7 588.7 488.5 598.3 504.8 607.9 521.1 607.9 541.3 598.3 557.6 588.7 574 571 583.8 552.1 583.3L520.8 583.3 520.8 625 479.2 625 479.2 583.3 395.8 583.3 395.8 541.7 479.2 541.7 479.2 520.8 447.9 520.8C419.6 520.1 397.1 497 397.1 468.7 397.1 440.5 419.6 417.3 447.9 416.7L479.2 416.7 479.2 375 520.8 375 520.8 416.7 604.2 416.7 604.2 458.3 520.8 458.3 520.8 479.2 552.1 479.2ZM520.8 541.7L552.1 541.7C555.8 541.7 559.3 539.7 561.1 536.4 563 533.2 563 529.2 561.1 526 559.3 522.8 555.8 520.8 552.1 520.8L520.8 520.8 520.8 541.7ZM479.2 458.3L447.9 458.3C442.2 458.3 437.5 463 437.5 468.8 437.5 474.5 442.2 479.2 447.9 479.2L479.2 479.2 479.2 458.3Z" />
</svg>
