<svg width="32" height="32" viewBox="0 0 1000 1000"  xmlns="http://www.w3.org/2000/svg">

<path fill-rule="evenodd" clip-rule="evenodd"  d="M656.3 750L625 750 625 687.5 656.3 687.5C673.5 687.5 687.5 673.5 687.5 656.3L687.5 625 750 625 750 656.3C750 708 708 750 656.3 750ZM562.5 750L437.5 750 437.5 687.5 562.5 687.5 562.5 750ZM375 750L343.8 750C292 750 250 708 250 656.3L250 625 312.5 625 312.5 656.3C312.5 673.5 326.5 687.5 343.8 687.5L375 687.5 375 750ZM312.5 562.5L250 562.5 250 437.5 312.5 437.5 312.5 562.5ZM750 562.5L687.5 562.5 687.5 437.5 750 437.5 750 562.5ZM750 375L687.5 375 687.5 343.8C687.5 326.5 673.5 312.5 656.3 312.5L625 312.5 625 250 656.3 250C708 250 750 292 750 343.8L750 375ZM312.5 375L250 375 250 343.8C250 292 292 250 343.8 250L375 250 375 312.5 343.8 312.5C326.5 312.5 312.5 326.5 312.5 343.8L312.5 375ZM562.5 312.5L437.5 312.5 437.5 250 562.5 250 562.5 312.5Z" />
</svg>
