<svg width="32" height="32" viewBox="0 0 32 32" fill="none" xmlns="http://www.w3.org/2000/svg">
  <g clip-path="url(#clip0)">
    <path d="M22.9016 9.09838C21.4371 7.63388 19.0627 7.63388 17.5982 9.09835L14.4641 12.2325C12.9492 13.7474 13.0895 16.1612 14.4641 17.5358C14.6942 17.766 14.9489 17.9537 15.2179 18.1079L15.7899 17.5358C16.1651 17.1606 16.033 16.7219 16.0263 16.4054C15.9439 16.347 15.8638 16.2839 15.7899 16.21C15.0845 15.5047 15.0528 14.2955 15.7899 13.5583C15.8994 13.4489 18.8576 10.4907 18.924 10.4242C19.6552 9.693 20.8445 9.693 21.5757 10.4242C22.3069 11.1554 22.3069 12.3447 21.5757 13.0759L19.504 15.1475C19.5639 15.479 19.9235 16.2642 19.7385 17.5594C19.7476 17.5506 19.7584 17.5448 19.7674 17.5359L22.9016 14.4017C24.366 12.9372 24.366 10.5629 22.9016 9.09838Z" fill="black"/>
    <path d="M17.7787 14.2213C17.5485 13.9911 17.2938 13.8034 17.0249 13.6493L16.4529 14.2213C16.0776 14.5965 16.2097 15.0351 16.2165 15.3517C16.2989 15.41 16.379 15.4731 16.4529 15.5471C17.1583 16.2525 17.19 17.4616 16.4529 18.1987C16.3432 18.3084 13.1399 21.5117 13.0758 21.5758C12.3446 22.307 11.1554 22.307 10.4242 21.5758C9.69295 20.8446 9.69295 19.6554 10.4242 18.9241L12.7388 16.6095C12.6789 16.2781 12.3193 15.4929 12.5043 14.1976C12.4952 14.2065 12.4844 14.2123 12.4754 14.2213L9.09833 17.5984C7.63389 19.0629 7.63389 21.4372 9.09833 22.9017C10.5628 24.3661 12.9371 24.3661 14.4016 22.9017L17.7787 19.5246C19.2654 18.0379 19.1842 15.6268 17.7787 14.2213Z" fill="black"/>
  </g>
  <defs>
    <clipPath id="clip0">
      <rect width="16" height="16" fill="white" transform="translate(8 8)"/>
    </clipPath>
  </defs>
</svg>

