<svg width="32" height="32" viewBox="0 0 1000 1000"  xmlns="http://www.w3.org/2000/svg">

<path fill-rule="evenodd" clip-rule="evenodd"  d="M218.8 375L218.8 343.8C218.8 326.5 232.7 312.5 250 312.5L750 312.5C767.3 312.5 781.3 326.5 781.3 343.8L781.3 375 218.8 375ZM218.8 468.8L218.8 656.3C218.8 673.5 232.7 687.5 250 687.5L750 687.5C767.3 687.5 781.3 673.5 781.3 656.3L781.3 468.8 218.8 468.8ZM781.3 750L218.8 750C184.2 750 156.3 722 156.3 687.5L156.3 312.5C156.3 278 184.2 250 218.8 250L781.3 250C815.8 250 843.8 278 843.8 312.5L843.8 687.5C843.8 722 815.8 750 781.3 750ZM281.3 593.8L437.5 593.8 437.5 656.3 281.3 656.3 281.3 593.8Z"  />
</svg>
