<svg width="32" height="32" viewBox="0 0 1000 1000"  xmlns="http://www.w3.org/2000/svg">

<path fill-rule="evenodd" clip-rule="evenodd"  d="M281.3 218.6C281.3 184.1 309.5 156.3 343.8 156.3L656.2 156.3C690.6 156.3 718.8 184.2 718.8 218.6L718.8 750.2C718.8 784.6 690.5 812.5 656.2 812.5L343.8 812.5C309.4 812.5 281.3 784.5 281.3 750.2L281.3 218.6ZM343.8 750.2C343.8 749.9 656.2 750 656.2 750 656.2 750 656.3 218.6 656.3 218.6 656.3 218.8 343.8 218.8 343.8 218.8 343.8 218.8 343.8 750.2 343.8 750.2ZM468.8 687.5C468.8 670.2 482.6 656.3 500 656.3 517.3 656.3 531.3 670.1 531.3 687.5 531.3 704.8 517.4 718.8 500 718.8 482.7 718.8 468.8 704.9 468.8 687.5ZM375 312.5L625 312.5 625 625 375 625 375 312.5ZM437.5 265.6C437.5 257 444.2 250 452.8 250L547.2 250C555.6 250 562.5 257.2 562.5 265.6 562.5 274.3 555.8 281.3 547.2 281.3L452.8 281.3C444.4 281.3 437.5 274 437.5 265.6Z" />
</svg>
