<svg width="32" height="32" viewBox="0 0 1000 1000"  xmlns="http://www.w3.org/2000/svg">

<path fill-rule="evenodd" clip-rule="evenodd"  d="M250 343.8L218.8 343.8 218.8 718.8 781.3 718.8 781.3 343.8 468.8 343.8 468.8 656.3C468.8 673.4 454.7 687.5 437.8 687.5L281 687.5C263.8 687.5 250 673.6 250 656.3L250 343.8ZM781.3 281.3C815.8 281.3 843.8 309.2 843.8 343.8L843.8 718.8C843.8 753.3 815.8 781.3 781.3 781.3L218.8 781.3C184.2 781.3 156.3 753.3 156.3 718.8L156.3 343.8C156.3 309.2 184.2 281.3 218.8 281.3L218.8 250C218.8 215.5 246.7 187.5 281.3 187.5L437.5 187.5C472 187.5 500 215.5 500 250L500 281.3 781.3 281.3ZM515.6 375L734.4 375 734.4 437.5 515.6 437.5 515.6 375ZM515.6 453.1L578.1 453.1 578.1 515.6 515.6 515.6 515.6 453.1ZM515.6 531.3L578.1 531.3 578.1 593.8 515.6 593.8 515.6 531.3ZM515.6 609.4L578.1 609.4 578.1 671.9 515.6 671.9 515.6 609.4ZM593.8 453.1L656.3 453.1 656.3 515.6 593.8 515.6 593.8 453.1ZM593.8 531.3L656.3 531.3 656.3 593.8 593.8 593.8 593.8 531.3ZM593.8 609.4L656.3 609.4 656.3 671.9 593.8 671.9 593.8 609.4ZM671.9 453.1L734.4 453.1 734.4 515.6 671.9 515.6 671.9 453.1ZM671.9 531.3L734.4 531.3 734.4 593.8 671.9 593.8 671.9 531.3ZM671.9 609.4L734.4 609.4 734.4 671.9 671.9 671.9 671.9 609.4ZM281.3 656.3L437.8 656.3C437.5 656.3 437.5 250 437.5 250L281 250C281.3 250 281.3 656.3 281.3 656.3Z" />
</svg>
