<svg width="32" height="32" viewBox="0 0 1000 1000"  xmlns="http://www.w3.org/2000/svg">

<path fill-rule="evenodd" clip-rule="evenodd"  d="M687.5 593.8L687.5 218.8 312.5 218.8 312.5 718.8 546.9 718.8 546.9 593.8 687.5 593.8ZM687.5 631.5L600.2 718.8 687.5 718.8 687.5 631.5ZM750 156.3L750 781.3 250 781.3 250 156.3 750 156.3ZM578.1 696.7L649.8 625 578.1 625 578.1 696.7ZM343.8 500L593.8 500 593.8 531.3 343.8 531.3 343.8 500ZM343.8 437.5L656.3 437.5 656.3 468.8 343.8 468.8 343.8 437.5ZM343.8 375L656.3 375 656.3 406.3 343.8 406.3 343.8 375Z" />
</svg>
