<svg width="32" height="32" viewBox="0 0 1000 1000"  xmlns="http://www.w3.org/2000/svg">

<path fill-rule="evenodd" clip-rule="evenodd"  d="M564.4 375L609.4 375 609.4 531.3 718.8 531.3C770.5 531.3 812.5 573.2 812.5 625L812.5 812.5C812.5 847 784.5 875 750 875L250 875C215.5 875 187.5 847 187.5 812.5L187.5 625C187.5 573.2 229.5 531.3 281.3 531.3L390.6 531.3 390.6 375 435.6 375C417.5 357.9 406.3 333.7 406.3 306.8 406.3 284.8 416.3 255 436.4 208.2 438.4 203.5 440.5 198.7 442.8 193.5 446.5 185.2 458.4 158.4 458.9 157.3 464.6 144.5 468.3 135.9 470.9 129.2L500.6 53.5 529.2 129.6C531.8 136.5 535.6 145.4 541.1 158 543.7 164 554.7 188.5 557.3 194.3 559.3 198.9 561.1 203.1 562.9 207.2 583.7 255.2 593.8 284.6 593.8 306.8 593.8 333.7 582.5 357.9 564.4 375ZM750 646.5L750 625C750 607.7 736 593.8 718.8 593.8L281.3 593.8C264 593.8 250 607.7 250 625L250 649.5C256.1 655 262 661.7 268.2 669.4 269.3 670.8 269.3 670.8 270.3 672.1 280.9 685.5 283.8 687.5 292 687.5 301.1 687.5 305.2 684.7 318.1 669.9L319.4 668.3C344 640.1 362.6 627.7 396.9 627.7 431.4 627.7 449.1 640.1 472 668.9L472.4 669.4C484.8 684.9 488.4 687.5 500 687.5 512.1 687.5 517 684.3 530.6 668.4L532 666.9C555.5 639.6 573.1 627.7 605.7 627.7 639.7 627.7 657.4 640.5 680.3 669.5L681.1 670.5C692.6 685.2 695.8 687.5 703.8 687.5 711.6 687.5 714.8 685.2 725.8 671.9 727 670.5 727 670.5 728.2 669 735.6 660 742.7 652.5 750 646.5ZM750 735.8C737.1 745.5 723.1 750 703.8 750 671.2 750 654.3 737.6 632 709.2L631.2 708.2C619.1 692.8 615.4 690.2 605.7 690.2 596.1 690.2 592.1 692.9 579.3 707.7L578 709.2C553.6 737.5 534.8 750 500 750 464.7 750 446.6 737.3 423.5 708.3L423.1 707.8C410.9 692.5 407.5 690.2 396.9 690.2 385.4 690.2 380.4 693.5 366.6 709.3L365.3 710.9C341.6 738.2 324.2 750 292 750 274.7 750 261.7 746.4 250 738.9L250 812.5 750 812.5 750 735.8ZM453.1 531.3L546.9 531.3 546.9 437.5 453.1 437.5 453.1 531.3ZM493.8 232.8C477.6 270.7 468.8 296.9 468.8 306.8 468.8 324.1 482.7 338.1 500 338.1 517.3 338.1 531.3 324.1 531.3 306.8 531.3 296.8 522.3 270.8 505.5 232 503.8 228.1 502 224 500.1 219.6 500 219.4 499.9 219.2 499.8 219 497.7 223.9 495.7 228.5 493.8 232.8Z" />
</svg>
