<svg width="32" height="32" viewBox="0 0 1000 1000"  xmlns="http://www.w3.org/2000/svg">

<path fill-rule="evenodd" clip-rule="evenodd"  d="M593.8 171.9C645.5 171.9 687.5 213.8 687.5 265.6 687.5 317.4 645.5 359.4 593.8 359.4L468.8 359.4 468.8 328.1C468.8 250.8 535.1 171.9 593.8 171.9ZM593.8 296.9C611 296.9 625 282.9 625 265.6 625 248.4 611 234.4 593.8 234.4 577.2 234.4 549.2 263.1 537.1 296.9L593.8 296.9ZM406.3 234.4C389 234.4 375 248.4 375 265.6 375 282.9 389 296.9 406.3 296.9L462.9 296.9C450.8 263.1 422.8 234.4 406.3 234.4ZM406.3 171.9C464.9 171.9 531.3 250.8 531.3 328.1L531.3 359.4 406.3 359.4C354.5 359.4 312.5 317.4 312.5 265.6 312.5 213.8 354.5 171.9 406.3 171.9ZM437.5 343.8L562.5 343.8 562.5 750 437.5 750 437.5 343.8ZM750 437.5L750 781.3 250 781.3 250 437.5 750 437.5ZM312.5 718.8L687.5 718.8 687.5 500 312.5 500 312.5 718.8ZM250 437.5L750 437.5 750 375 250 375 250 437.5ZM812.5 312.5L812.5 500 187.5 500 187.5 312.5 812.5 312.5Z" />
</svg>
