<svg width="32" height="32" viewBox="0 0 1000 1000"  xmlns="http://www.w3.org/2000/svg">

<path fill-rule="evenodd" clip-rule="evenodd"  d="M375 752L375 625C375 573.2 417 531.3 468.8 531.3L531.3 531.3C583 531.3 625 573.2 625 625L625 752C717.6 706 781.3 610.4 781.3 500 781.3 344.7 655.3 218.8 500 218.8 344.7 218.8 218.8 344.7 218.8 500 218.8 610.4 282.4 706 375 752ZM500 843.8C310.2 843.8 156.3 689.8 156.3 500 156.3 310.2 310.2 156.3 500 156.3 689.8 156.3 843.8 310.2 843.8 500 843.8 689.8 689.8 843.8 500 843.8ZM406.3 406.3C406.3 354.5 448.3 312.5 500 312.5 551.8 312.5 593.8 354.6 593.8 406.3 593.8 458 551.7 500 500 500 448.2 500 406.3 457.9 406.3 406.3Z" />
</svg>
