<svg width="32" height="32" viewBox="0 0 1000 1000"  xmlns="http://www.w3.org/2000/svg">

<path fill-rule="evenodd" clip-rule="evenodd"  d="M656.3 843.8L343.8 843.8C309.2 843.8 281.3 815.8 281.3 781.3L281.3 218.8C281.3 184.2 309.2 156.3 343.8 156.3L656.3 156.3C690.8 156.3 718.8 184.2 718.8 218.8L718.8 781.3C718.8 815.8 690.8 843.8 656.3 843.8ZM359.4 218.8C350.7 218.8 343.8 225.7 343.8 234.4L343.8 765.6C343.8 774.3 350.7 781.3 359.4 781.3L640.6 781.3C649.3 781.3 656.3 774.3 656.3 765.6L656.3 234.4C656.3 225.7 649.3 218.8 640.6 218.8L359.4 218.8ZM468.7 734.4C468.7 725.7 475.4 718.8 484.5 718.8L515.4 718.8C524.1 718.8 531.2 726 531.2 734.4 531.2 743 524.5 750 515.4 750L484.5 750C475.7 750 468.7 742.8 468.7 734.4ZM624.9 687.5L374.9 687.5 374.9 281.3 624.9 281.3 624.9 687.5ZM421.8 531.3C413.2 531.3 406.2 538.2 406.2 546.9 406.2 555.5 413.2 562.5 421.8 562.5L484.3 562.5 484.3 578.1C484.3 586.8 491.3 593.8 499.9 593.8 508.6 593.8 515.6 586.8 515.6 578.1L515.6 562.5 578.1 562.5C586.7 562.5 593.7 555.5 593.7 546.9L593.7 484.4C593.7 475.7 586.7 468.8 578.1 468.8L515.6 468.8 515.6 437.5 578.1 437.5C586.7 437.5 593.7 430.5 593.7 421.9 593.7 413.2 586.7 406.3 578.1 406.3L515.6 406.3 515.6 390.6C515.6 382 508.6 375 499.9 375 491.3 375 484.3 382 484.3 390.6L484.3 406.3 421.8 406.3C413.2 406.3 406.2 413.2 406.2 421.9L406.2 484.4C406.2 493 413.2 500 421.8 500L484.3 500 484.3 531.3 421.8 531.3ZM562.4 531.3L515.6 531.3 515.6 500 562.4 500 562.4 531.3ZM484.3 468.8L437.4 468.8 437.4 437.5 484.3 437.5 484.3 468.8Z" />
</svg>
