<svg width="32" height="32" viewBox="0 0 1000 1000"  xmlns="http://www.w3.org/2000/svg">

<path fill-rule="evenodd" clip-rule="evenodd"  d="M750 312.5L750 437.5 593.8 437.5C593.8 403 565.8 375 531.3 375L437.5 375 437.5 250 750 250 750 281.3 437.5 281.3 437.5 312.5 750 312.5ZM562.5 812.5L250 812.5C215.5 812.5 187.5 784.5 187.5 750L187.5 406.3C187.5 371.7 215.5 343.8 250 343.8L375 343.8 375 218.8C375 201.5 389 187.5 406.3 187.5L781.3 187.5C798.5 187.5 812.5 201.5 812.5 218.8L812.5 468.8C812.5 486 798.5 500 781.3 500L625 500 625 750C625 784.5 597 812.5 562.5 812.5ZM281.3 406.3C264 406.3 250 420.2 250 437.5L250 718.8C250 736 264 750 281.3 750L531.3 750C548.5 750 562.5 736 562.5 718.8L562.5 437.5C562.5 420.2 548.5 406.3 531.3 406.3L281.3 406.3ZM281.3 437.5L531.3 437.5 531.3 531.3 281.3 531.3 281.3 437.5ZM281.3 562.5L343.8 562.5 343.8 593.8 281.3 593.8 281.3 562.5ZM375 562.5L437.5 562.5 437.5 593.8 375 593.8 375 562.5ZM468.8 562.5L531.3 562.5 531.3 593.8 468.8 593.8 468.8 562.5ZM281.3 625L343.8 625 343.8 656.3 281.3 656.3 281.3 625ZM375 625L437.5 625 437.5 656.3 375 656.3 375 625ZM468.8 625L531.3 625 531.3 656.3 468.8 656.3 468.8 625ZM281.3 687.5L343.8 687.5 343.8 718.8 281.3 718.8 281.3 687.5ZM375 687.5L437.5 687.5 437.5 718.8 375 718.8 375 687.5ZM468.8 687.5L531.3 687.5 531.3 718.8 468.8 718.8 468.8 687.5Z" />
</svg>
