<svg width="32" height="32" viewBox="0 0 1000 1000"  xmlns="http://www.w3.org/2000/svg">

<path fill-rule="evenodd" clip-rule="evenodd"  d="M656.3 781.3L343.8 781.3C274.7 781.3 218.8 725.3 218.8 656.3L218.8 343.8C218.8 274.7 274.7 218.8 343.8 218.8L656.3 218.8C725.3 218.8 781.3 274.7 781.3 343.8L781.3 656.3C781.2 725.2 725.2 781.2 656.3 781.3L656.3 781.3ZM343.8 281.3C309.2 281.3 281.3 309.2 281.3 343.8L281.3 656.3C281.3 690.8 309.2 718.8 343.8 718.8L656.3 718.8C690.8 718.8 718.8 690.8 718.8 656.3L718.8 343.8C718.8 309.2 690.8 281.3 656.3 281.3L343.8 281.3ZM515.7 650L515.7 626.8C576.4 621.9 610.1 592.2 610.1 543.8 610.1 502.6 585.6 477.1 537.4 467.8L515.6 463.7 515.6 406.9C530.7 409 542.3 421.3 543.4 436.6L605 436.6C604.5 393 570 362.3 515.7 357.1L515.7 332.1 489.3 332.1 489.3 357.1C430.2 361.3 396.1 391 396.1 438.4 396.1 478.5 420.6 504.9 467.5 515.1L489.4 519.9 489.4 578.8C471.8 578.6 457.1 565.5 454.8 548.1L391.2 548.1C391.3 595 427.4 624.1 489.3 627.2L489.3 650 515.7 650ZM547.5 551.4C547.5 567 535.6 577.4 515.7 578.9L515.7 524.3C537.1 528.3 547.5 537.3 547.5 551.4ZM460.3 432.2C461.4 417.2 474.3 405.8 489.3 406.6L489.3 458.6C470.4 454.7 460.3 445.6 460.3 432.2Z" />
</svg>
