<svg id="edit.svg" xmlns="http://www.w3.org/2000/svg" width="32" height="32" viewBox="0 0 32 32">
  <defs>
    <style>
      .cls-1 {
        opacity: 0;
      }

      .cls-2 {
        fill-rule: evenodd;
      }
    </style>
  </defs>
  <rect id="BG" class="cls-1" width="32" height="32"/>
  <path id="角丸長方形_5_のコピー_11" data-name="角丸長方形 5 のコピー 11" class="cls-2" d="M4334.95,580.293l-5.66,5.656h-4.24v-4.242l5.66-5.657a2.2,2.2,0,0,1,2.83,0l1.41,1.414A2.168,2.168,0,0,1,4334.95,580.293Zm-5.42-.239-2.55,2.547v1.415h1.42l2.55-2.547Zm3.65-1.529-0.7-.707a0.5,0.5,0,0,0-.71,0l-1.06,1.061,1.41,1.414,1.06-1.061A0.51,0.51,0,0,0,4333.18,578.525ZM4324,580a1,1,0,0,0-1,1v6a1,1,0,0,0,1,1h6a1,1,0,0,0,1-1v-0.843l2-2V587.5a2.5,2.5,0,0,1-2.5,2.5h-7a2.5,2.5,0,0,1-2.5-2.5v-7a2.5,2.5,0,0,1,2.5-2.5h3.34l-1.99,2H4324Z" transform="translate(-4312 -568)"/>
</svg>
