<svg width="24" height="24" viewBox="0 0 24 24" fill="none" xmlns="http://www.w3.org/2000/svg">
<path d="M18.8571 1H5.14286C4.83975 1 4.54906 1.11589 4.33474 1.32218C4.12041 1.52847 4 1.80826 4 2.1V21.9C4 22.1917 4.12041 22.4715 4.33474 22.6778C4.54906 22.8841 4.83975 23 5.14286 23H18.8571C19.1602 23 19.4509 22.8841 19.6653 22.6778C19.8796 22.4715 20 22.1917 20 21.9V2.1C20 1.80826 19.8796 1.52847 19.6653 1.32218C19.4509 1.11589 19.1602 1 18.8571 1ZM18.5029 2.1L16.7886 4.85L7.18857 4.8115L5.49714 2.1H18.5029ZM6.18857 5.3395C6.28319 5.52277 6.42904 5.677 6.60974 5.78485C6.79044 5.8927 6.99881 5.94989 7.21143 5.95H16.7886C16.9917 5.95592 17.1926 5.90768 17.3691 5.81063C17.5456 5.71357 17.6907 5.57146 17.7886 5.4L18.8571 3.6675V18.7H5.14286V3.6675L6.18857 5.3395ZM18.8571 21.9H5.14286V19.8H18.8571V21.9ZM12 17.5C13.0172 17.5 14.0115 17.2097 14.8572 16.6658C15.703 16.1219 16.3621 15.3488 16.7514 14.4443C17.1406 13.5398 17.2425 12.5445 17.044 11.5843C16.8456 10.6241 16.3558 9.74209 15.6365 9.04982C14.9173 8.35755 14.0009 7.88611 13.0033 7.69511C12.0057 7.50412 10.9716 7.60214 10.0319 7.9768C9.09218 8.35145 8.28897 8.9859 7.72387 9.79993C7.15877 10.614 6.85714 11.571 6.85714 12.55C6.85714 13.8628 7.39898 15.1219 8.36345 16.0502C9.32792 16.9785 10.636 17.5 12 17.5ZM12 8.7C12.7911 8.7 13.5645 8.9258 14.2223 9.34884C14.8801 9.77188 15.3928 10.3732 15.6955 11.0767C15.9983 11.7802 16.0775 12.5543 15.9231 13.3011C15.7688 14.0479 15.3878 14.7339 14.8284 15.2724C14.269 15.8108 13.5563 16.1775 12.7804 16.326C12.0044 16.4746 11.2002 16.3983 10.4693 16.1069C9.73836 15.8155 9.11365 15.3221 8.67412 14.6889C8.2346 14.0558 8 13.3115 8 12.55C8 11.5289 8.42143 10.5497 9.17157 9.82764C9.92172 9.10562 10.9391 8.7 12 8.7ZM11.5943 15.014C11.6474 15.0656 11.7106 15.1065 11.7802 15.1344C11.8499 15.1623 11.9246 15.1767 12 15.1767C12.0754 15.1767 12.1501 15.1623 12.2198 15.1344C12.2894 15.1065 12.3526 15.0656 12.4057 15.014L14.56 12.9405C14.6136 12.8894 14.6561 12.8285 14.6851 12.7615C14.7141 12.6945 14.729 12.6226 14.729 12.55C14.729 12.4774 14.7141 12.4055 14.6851 12.3385C14.6561 12.2715 14.6136 12.2106 14.56 12.1595L12.4057 10.086C12.3526 10.0344 12.2894 9.99353 12.2198 9.96561C12.1501 9.93769 12.0754 9.92331 12 9.92331C11.9246 9.92331 11.8499 9.93769 11.7802 9.96561C11.7106 9.99353 11.6474 10.0344 11.5943 10.086L9.44 12.1595C9.38644 12.2106 9.34393 12.2715 9.31492 12.3385C9.28591 12.4055 9.27097 12.4774 9.27097 12.55C9.27097 12.6226 9.28591 12.6945 9.31492 12.7615C9.34393 12.8285 9.38644 12.8894 9.44 12.9405L11.5943 15.014ZM12 11.252L13.3486 12.55L12 13.848L10.6514 12.55L12 11.252Z" fill="black"/>
<path fill-rule="evenodd" clip-rule="evenodd" d="M4.16137 1.14206C4.42325 0.890001 4.77647 0.75 5.14286 0.75H18.8571C19.2235 0.75 19.5768 0.89 19.8386 1.14206C20.1008 1.39443 20.25 1.73881 20.25 2.1V21.9C20.25 22.2612 20.1008 22.6056 19.8386 22.8579C19.5768 23.11 19.2235 23.25 18.8571 23.25H5.14286C4.77647 23.25 4.42325 23.11 4.16137 22.8579C3.89916 22.6056 3.75 22.2612 3.75 21.9V2.1C3.75 1.73881 3.89916 1.39443 4.16137 1.14206ZM5.14286 1.25C4.90304 1.25 4.67488 1.34178 4.5081 1.5023C4.34165 1.66251 4.25 1.87772 4.25 2.1V21.9C4.25 22.1223 4.34165 22.3375 4.5081 22.4977C4.67488 22.6582 4.90304 22.75 5.14286 22.75H18.8571C19.097 22.75 19.3251 22.6582 19.4919 22.4977C19.6583 22.3375 19.75 22.1223 19.75 21.9V2.1C19.75 1.87772 19.6583 1.66251 19.4919 1.5023C19.3251 1.34178 19.097 1.25 18.8571 1.25H5.14286ZM5.04654 1.85H18.9533L16.927 5.10056L7.04952 5.06094L5.04654 1.85ZM5.94775 2.35L7.32762 4.56206L16.6502 4.59944L18.0524 2.35H5.94775ZM19.1071 2.78594V18.95H4.89286V2.79631L6.40599 5.21567L6.41071 5.22481C6.48348 5.36576 6.59636 5.48572 6.73787 5.57018C6.87944 5.65468 7.04352 5.69991 7.21156 5.7H16.7959C16.9549 5.70463 17.1116 5.66693 17.2486 5.59157C17.3856 5.51625 17.4969 5.4067 17.5714 5.27609L17.5757 5.26868L19.1071 2.78594ZM5.39286 4.53869V18.45H18.6071V4.54906L18.0035 5.5278C17.8824 5.73836 17.7042 5.91162 17.4896 6.02968C17.2748 6.14782 17.0311 6.20649 16.7851 6.2H7.21143C6.95423 6.19987 6.70143 6.13072 6.48161 5.99952C6.26485 5.87014 6.08799 5.68513 5.97144 5.46379L5.39286 4.53869ZM9.93933 7.74457C10.9236 7.35218 12.0061 7.24964 13.0503 7.44957C14.0946 7.64951 15.0551 8.14323 15.8099 8.8697C16.5648 9.59627 17.08 10.5232 17.2889 11.5337C17.4977 12.5443 17.3904 13.5918 16.981 14.5431C16.5717 15.4943 15.8791 16.3058 14.9924 16.876C14.1059 17.4462 13.0645 17.75 12 17.75C10.5727 17.75 9.20211 17.2044 8.19008 16.2303C7.17773 15.2559 6.60714 13.9323 6.60714 12.55C6.60714 11.5194 6.92472 10.5127 7.51851 9.65736C8.11221 8.80215 8.95503 8.13699 9.93933 7.74457ZM12.9563 7.94065C12.0053 7.75859 11.0197 7.85211 10.1245 8.20902C9.22933 8.56591 8.46574 9.16966 7.92924 9.94249C7.39281 10.7152 7.10714 11.6226 7.10714 12.55C7.10714 13.7934 7.62022 14.9878 8.53682 15.8701C9.45374 16.7526 10.6993 17.25 12 17.25C12.9698 17.25 13.9171 16.9732 14.722 16.4555C15.5268 15.9379 16.1526 15.2032 16.5217 14.3455C16.8908 13.4878 16.9872 12.5447 16.7992 11.6349C16.6112 10.725 16.1468 9.88791 15.4632 9.22994C14.7795 8.57188 13.9072 8.12271 12.9563 7.94065ZM12 8.95C11.0024 8.95 10.0475 9.33152 9.34494 10.0078C8.64267 10.6837 8.25 11.5984 8.25 12.55C8.25 13.2598 8.46864 13.9546 8.87949 14.5464C9.29042 15.1383 9.87551 15.6011 10.5619 15.8747C11.2483 16.1484 12.0041 16.2201 12.7334 16.0805C13.4626 15.9409 14.1312 15.5965 14.6551 15.0922C15.1788 14.5881 15.5344 13.947 15.6783 13.2505C15.8222 12.5541 15.7485 11.8321 15.4659 11.1755C15.1832 10.5187 14.7039 9.95584 14.0871 9.55911C13.4701 9.16232 12.7438 8.95 12 8.95ZM8.99821 9.64752C9.7959 8.87973 10.8758 8.45 12 8.45C12.8385 8.45 13.6589 8.68927 14.3575 9.13857C15.0562 9.58793 15.6023 10.2276 15.9252 10.9778C16.2481 11.7282 16.3327 12.5545 16.168 13.3517C16.0032 14.1489 15.5968 14.8797 15.0018 15.4525C14.4068 16.0251 13.65 16.4141 12.8274 16.5716C12.0048 16.729 11.1521 16.6483 10.3767 16.3392C9.60121 16.03 8.93688 15.5058 8.46876 14.8315C8.00055 14.1571 7.75 13.3631 7.75 12.55C7.75 11.4595 8.20018 10.4156 8.99821 9.64752ZM11.6872 9.73357C11.7866 9.69372 11.8929 9.67331 12 9.67331C12.1071 9.67331 12.2134 9.69372 12.3128 9.73357C12.412 9.77336 12.5027 9.83188 12.5794 9.90621L14.7326 11.9787C14.8099 12.0525 14.8721 12.1412 14.9145 12.2392C14.957 12.3374 14.979 12.443 14.979 12.55C14.979 12.657 14.957 12.7626 14.9145 12.8608C14.8721 12.9588 14.8102 13.0471 14.733 13.121L12.5798 15.1934C12.5031 15.2677 12.412 15.3266 12.3128 15.3664C12.2134 15.4063 12.1071 15.4267 12 15.4267C11.8929 15.4267 11.7866 15.4063 11.6872 15.3664C11.588 15.3266 11.4973 15.2681 11.4206 15.1938L9.26737 13.1213C9.19014 13.0475 9.12791 12.9588 9.08549 12.8608C9.04299 12.7626 9.02097 12.657 9.02097 12.55C9.02097 12.443 9.04299 12.3374 9.08549 12.2392C9.12791 12.1412 9.18976 12.0529 9.26699 11.979L11.4202 9.90659C11.4969 9.83226 11.588 9.77336 11.6872 9.73357ZM12 10.1733C11.9563 10.1733 11.9132 10.1817 11.8733 10.1976C11.8334 10.2136 11.7979 10.2368 11.7684 10.2654L11.7677 10.2661L9.61337 12.3396L9.61263 12.3403C9.58292 12.3687 9.55988 12.4019 9.54435 12.4378C9.52883 12.4737 9.52097 12.5118 9.52097 12.55C9.52097 12.5882 9.52883 12.6263 9.54435 12.6622C9.55988 12.6981 9.58292 12.7313 9.61263 12.7597L9.61337 12.7604L11.7684 14.8346C11.7979 14.8632 11.8334 14.8864 11.8733 14.9024C11.9132 14.9183 11.9563 14.9267 12 14.9267C12.0437 14.9267 12.0868 14.9183 12.1267 14.9024C12.1666 14.8864 12.2021 14.8632 12.2316 14.8346L12.2323 14.8339L14.3866 12.7604L14.3874 12.7597C14.4171 12.7313 14.4401 12.6981 14.4557 12.6622C14.4712 12.6263 14.479 12.5882 14.479 12.55C14.479 12.5118 14.4712 12.4737 14.4557 12.4378C14.4401 12.4019 14.4171 12.3687 14.3874 12.3403L14.3866 12.3396L12.2323 10.2661L12.2316 10.2654C12.2021 10.2368 12.1666 10.2136 12.1267 10.1976C12.0868 10.1817 12.0437 10.1733 12 10.1733ZM12 10.905L13.7091 12.55L12 14.195L10.2909 12.55L12 10.905ZM11.0119 12.55L12 13.501L12.9881 12.55L12 11.599L11.0119 12.55ZM4.89286 19.55H19.1071V22.15H4.89286V19.55ZM5.39286 20.05V21.65H18.6071V20.05H5.39286Z" fill="black"/>
</svg>
