<svg width="24" height="24" viewBox="0 0 24 24" fill="none" xmlns="http://www.w3.org/2000/svg">
<mask id="mask0_4439_7134" style="mask-type:alpha" maskUnits="userSpaceOnUse" x="0" y="0" width="24" height="24">
<rect width="24" height="24" fill="#D9D9D9"/>
</mask>
<g mask="url(#mask0_4439_7134)">
<path d="M12 18C14.2333 18 16.125 17.2208 17.675 15.6625C19.225 14.1042 20 12.2167 20 10C20 9.48333 19.9583 8.9875 19.875 8.5125C19.7916 8.0375 19.6583 7.575 19.475 7.125C19.025 7.40833 18.55 7.625 18.05 7.775C17.55 7.925 17.0333 8 16.5 8C15.6 8 14.7542 7.79583 13.9625 7.3875C13.1708 6.97917 12.5167 6.4 12 5.65C11.4833 6.4 10.8292 6.97917 10.0375 7.3875C9.24582 7.79583 8.39998 8 7.49998 8C6.96665 8 6.44998 7.925 5.94998 7.775C5.44998 7.625 4.97498 7.40833 4.52498 7.125C4.34165 7.575 4.20832 8.0375 4.12498 8.5125C4.04165 8.9875 3.99998 9.48333 3.99998 10C3.99998 12.2167 4.77915 14.1042 6.33748 15.6625C7.89582 17.2208 9.78332 18 12 18ZM8.99998 12.25C9.34998 12.25 9.64582 12.1292 9.88748 11.8875C10.1292 11.6458 10.25 11.35 10.25 11C10.25 10.65 10.1292 10.3542 9.88748 10.1125C9.64582 9.87083 9.34998 9.75 8.99998 9.75C8.64998 9.75 8.35415 9.87083 8.11248 10.1125C7.87082 10.3542 7.74998 10.65 7.74998 11C7.74998 11.35 7.87082 11.6458 8.11248 11.8875C8.35415 12.1292 8.64998 12.25 8.99998 12.25ZM15 12.25C15.35 12.25 15.6458 12.1292 15.8875 11.8875C16.1292 11.6458 16.25 11.35 16.25 11C16.25 10.65 16.1292 10.3542 15.8875 10.1125C15.6458 9.87083 15.35 9.75 15 9.75C14.65 9.75 14.3541 9.87083 14.1125 10.1125C13.8708 10.3542 13.75 10.65 13.75 11C13.75 11.35 13.8708 11.6458 14.1125 11.8875C14.3541 12.1292 14.65 12.25 15 12.25ZM7.49998 6C8.46665 6 9.29165 5.65833 9.97498 4.975C10.6583 4.29167 11 3.46667 11 2.5V2.05C9.86665 2.18333 8.82498 2.54167 7.87498 3.125C6.92498 3.70833 6.13332 4.45 5.49998 5.35C5.79998 5.55 6.11665 5.70833 6.44998 5.825C6.78332 5.94167 7.13332 6 7.49998 6ZM16.5 6C16.8666 6 17.2167 5.94583 17.55 5.8375C17.8833 5.72917 18.2 5.56667 18.5 5.35C17.8666 4.45 17.0792 3.70833 16.1375 3.125C15.1958 2.54167 14.15 2.18333 13 2.05V2.5C13 3.46667 13.3417 4.29167 14.025 4.975C14.7083 5.65833 15.5333 6 16.5 6ZM2.19998 22C1.61665 22 1.12498 21.7833 0.724984 21.35C0.324984 20.9167 0.149984 20.4083 0.199984 19.825L1.09998 9.95C1.23332 8.55 1.61248 7.24167 2.23748 6.025C2.86248 4.80833 3.66248 3.75417 4.63748 2.8625C5.61248 1.97083 6.72915 1.27083 7.98748 0.7625C9.24582 0.254167 10.5833 0 12 0C13.4167 0 14.7542 0.254167 16.0125 0.7625C17.2708 1.27083 18.3875 1.97083 19.3625 2.8625C20.3375 3.75417 21.1375 4.80833 21.7625 6.025C22.3875 7.24167 22.7667 8.55 22.9 9.95L23.8 19.825C23.85 20.4083 23.675 20.9167 23.275 21.35C22.875 21.7833 22.3833 22 21.8 22H2.19998ZM12 20C9.91665 20 8.04165 19.4208 6.37498 18.2625C4.70832 17.1042 3.49998 15.6167 2.74998 13.8L2.19998 20H21.8L21.25 13.8C20.5 15.6167 19.2958 17.1042 17.6375 18.2625C15.9791 19.4208 14.1 20 12 20ZM12 20H21.8H2.19998H12Z" fill="black"/>
</g>
</svg>
