<svg width="24" height="24" viewBox="0 0 24 24" fill="none" xmlns="http://www.w3.org/2000/svg">
<mask id="mask0_4041_63404" style="mask-type:alpha" maskUnits="userSpaceOnUse" x="0" y="0" width="24" height="24">
<rect width="24" height="24" fill="#D9D9D9"/>
</mask>
<g mask="url(#mask0_4041_63404)">
<path d="M12 20.3234C11.7667 20.3234 11.5292 20.2818 11.2875 20.1984C11.0458 20.1151 10.8333 19.9818 10.65 19.7984L8.925 18.2234C7.15833 16.6068 5.5625 15.0026 4.1375 13.4109C2.7125 11.8193 2 10.0651 2 8.14844C2 6.58177 2.525 5.27344 3.575 4.22344C4.625 3.17344 5.93333 2.64844 7.5 2.64844C8.38333 2.64844 9.21667 2.83594 10 3.21094C10.7833 3.58594 11.45 4.09844 12 4.74844C12.55 4.09844 13.2167 3.58594 14 3.21094C14.7833 2.83594 15.6167 2.64844 16.5 2.64844C18.0667 2.64844 19.375 3.17344 20.425 4.22344C21.475 5.27344 22 6.58177 22 8.14844C22 10.0651 21.2917 11.8234 19.875 13.4234C18.4583 15.0234 16.85 16.6318 15.05 18.2484L13.35 19.7984C13.1667 19.9818 12.9542 20.1151 12.7125 20.1984C12.4708 20.2818 12.2333 20.3234 12 20.3234ZM11.05 6.74844C10.5667 6.0651 10.05 5.54427 9.5 5.18594C8.95 4.8276 8.28333 4.64844 7.5 4.64844C6.5 4.64844 5.66667 4.98177 5 5.64844C4.33333 6.3151 4 7.14844 4 8.14844C4 9.0151 4.30833 9.93594 4.925 10.9109C5.54167 11.8859 6.27917 12.8318 7.1375 13.7484C7.99583 14.6651 8.87917 15.5234 9.7875 16.3234C10.6958 17.1234 11.4333 17.7818 12 18.2984C12.5667 17.7818 13.3042 17.1234 14.2125 16.3234C15.1208 15.5234 16.0042 14.6651 16.8625 13.7484C17.7208 12.8318 18.4583 11.8859 19.075 10.9109C19.6917 9.93594 20 9.0151 20 8.14844C20 7.14844 19.6667 6.3151 19 5.64844C18.3333 4.98177 17.5 4.64844 16.5 4.64844C15.7167 4.64844 15.05 4.8276 14.5 5.18594C13.95 5.54427 13.4333 6.0651 12.95 6.74844C12.8333 6.9151 12.6917 7.0401 12.525 7.12344C12.3583 7.20677 12.1833 7.24844 12 7.24844C11.8167 7.24844 11.6417 7.20677 11.475 7.12344C11.3083 7.0401 11.1667 6.9151 11.05 6.74844Z" fill="black"/>
</g>
</svg>
