<svg width="32" height="32" viewBox="0 0 32 32" fill="none" xmlns="http://www.w3.org/2000/svg">
<path fill-rule="evenodd" clip-rule="evenodd" d="M17.6003 8.5C17.6003 8.22386 17.3764 8 17.1003 8H14.9003C14.6241 8 14.4003 8.22386 14.4003 8.5V10.5437C14.4003 10.7621 14.2575 10.953 14.0542 11.0327C13.9899 11.0579 13.9262 11.0844 13.8632 11.112C13.663 11.1996 13.4268 11.1656 13.2723 11.0111L11.8272 9.566C11.632 9.37073 11.3154 9.37073 11.1201 9.566L9.56449 11.1216C9.36923 11.3169 9.36923 11.6335 9.56449 11.8287L11.0102 13.2745C11.1647 13.429 11.1988 13.665 11.1112 13.8651C11.084 13.9275 11.0579 13.9905 11.0329 14.0541C10.9532 14.2574 10.7623 14.4002 10.5438 14.4002H8.5C8.22386 14.4002 8 14.624 8 14.9002V17.1002C8 17.3763 8.22386 17.6002 8.5 17.6002H10.544C10.7625 17.6002 10.9534 17.7429 11.0331 17.9462C11.0581 18.0101 11.0844 18.0734 11.1118 18.136C11.1994 18.3362 11.1654 18.5722 11.0108 18.7268L9.56554 20.1721C9.37027 20.3673 9.37027 20.6839 9.56554 20.8792L11.1212 22.4348C11.3164 22.6301 11.633 22.6301 11.8283 22.4348L13.2737 20.9894C13.4282 20.8349 13.6643 20.8009 13.8645 20.8884C13.9271 20.9158 13.9903 20.9421 14.0542 20.9671C14.2575 21.0468 14.4003 21.2378 14.4003 21.4562V23.5C14.4003 23.7761 14.6241 24 14.9003 24H17.1003C17.3764 24 17.6003 23.7761 17.6003 23.5V21.4561C17.6003 21.2377 17.743 21.0468 17.9463 20.967C18.0098 20.9421 18.0727 20.9161 18.1349 20.8888C18.3351 20.8013 18.5711 20.8354 18.7256 20.9898L20.1711 22.4353C20.3664 22.6306 20.6829 22.6306 20.8782 22.4353L22.4338 20.8797C22.6291 20.6844 22.6291 20.3679 22.4338 20.1726L20.989 18.7278C20.8345 18.5732 20.8005 18.3371 20.8881 18.1369C20.9157 18.074 20.942 18.0104 20.9672 17.9462C21.0469 17.7429 21.2378 17.6002 21.4563 17.6002H23.5C23.7761 17.6002 24 17.3763 24 17.1002V14.9002C24 14.624 23.7761 14.4002 23.5 14.4002H21.4565C21.238 14.4002 21.0471 14.2574 20.9674 14.0541C20.9423 13.9902 20.9161 13.9269 20.8887 13.8642C20.8011 13.664 20.8351 13.428 20.9896 13.2735L22.4349 11.8282C22.6301 11.633 22.6301 11.3164 22.4349 11.1211L20.8792 9.56548C20.684 9.37021 20.3674 9.37021 20.1721 9.56548L18.727 11.0106C18.5725 11.1651 18.3364 11.1992 18.1362 11.1116C18.0735 11.0841 18.0102 11.0579 17.9463 11.0328C17.743 10.9531 17.6003 10.7622 17.6003 10.5438V8.5ZM16.1482 18.3702C17.3755 18.3702 18.3705 17.3753 18.3705 16.148C18.3705 14.9207 17.3755 13.9258 16.1482 13.9258C14.9209 13.9258 13.926 14.9207 13.926 16.148C13.926 17.3753 14.9209 18.3702 16.1482 18.3702Z" fill="black"/>
</svg>
