<svg width="32" height="32" viewBox="0 0 32 32" fill="none" xmlns="http://www.w3.org/2000/svg">
<path fill-rule="evenodd" clip-rule="evenodd" d="M18.0001 6.5C18.0001 6.22386 17.7762 6 17.5001 6H14.5001C14.224 6 14.0001 6.22386 14.0001 6.5V9.27148C14.0001 9.48991 13.8576 9.68126 13.6531 9.75817C13.5148 9.81018 13.3787 9.86667 13.245 9.92744C13.046 10.0179 12.8097 9.98338 12.6552 9.82883L10.6957 7.86929C10.5004 7.67403 10.1838 7.67403 9.98855 7.86929L7.86723 9.99061C7.67196 10.1859 7.67196 10.5025 7.86723 10.6977L9.82744 12.6579C9.98194 12.8124 10.0164 13.0486 9.92614 13.2475C9.86576 13.3806 9.80962 13.5159 9.75789 13.6534C9.68099 13.8579 9.48964 14.0004 9.2712 14.0004H6.5C6.22386 14.0004 6 14.2243 6 14.5004V17.5004C6 17.7766 6.22386 18.0004 6.5 18.0004H9.27144C9.48986 18.0004 9.6812 18.1429 9.75812 18.3473C9.81 18.4852 9.86632 18.621 9.92691 18.7543C10.0173 18.9533 9.98281 19.1895 9.82828 19.3441L7.86877 21.3036C7.67351 21.4988 7.67351 21.8154 7.86877 22.0107L9.99009 24.132C10.1854 24.3273 10.5019 24.3273 10.6972 24.132L12.657 22.1722C12.8115 22.0177 13.0477 21.9832 13.2467 22.0735C13.3799 22.134 13.5154 22.1902 13.6531 22.242C13.8576 22.3189 14.0001 22.5103 14.0001 22.7287V25.5C14.0001 25.7761 14.224 26 14.5001 26H17.5001C17.7762 26 18.0001 25.7761 18.0001 25.5V22.7285C18.0001 22.5101 18.1426 22.3187 18.347 22.2418C18.4844 22.1901 18.6195 22.1341 18.7524 22.0738C18.9513 21.9835 19.1875 22.018 19.342 22.1725L21.3023 24.1327C21.4975 24.328 21.8141 24.328 22.0094 24.1327L24.1307 22.0114C24.3259 21.8162 24.3259 21.4996 24.1307 21.3043L22.1711 19.3447C22.0165 19.1902 21.9821 18.9539 22.0725 18.7549C22.1332 18.6214 22.1896 18.4854 22.2415 18.3473C22.3185 18.1429 22.5098 18.0004 22.7282 18.0004H25.5C25.7761 18.0004 26 17.7766 26 17.5004V14.5004C26 14.2243 25.7761 14.0004 25.5 14.0004H22.7285C22.51 14.0004 22.3187 13.8579 22.2418 13.6534C22.19 13.5157 22.1337 13.3802 22.0732 13.2469C21.9829 13.048 22.0174 12.8118 22.1719 12.6573L24.1322 10.697C24.3275 10.5017 24.3275 10.1851 24.1322 9.98987L22.0109 7.86855C21.8156 7.67329 21.4991 7.67329 21.3038 7.86855L19.3438 9.82853C19.1893 9.98307 18.9531 10.0176 18.7541 9.92717C18.6207 9.86657 18.4849 9.81025 18.347 9.75836C18.1426 9.68144 18.0001 9.4901 18.0001 9.27168V6.5ZM16.0002 19.3332C17.8411 19.3332 19.3335 17.8409 19.3335 15.9999C19.3335 14.159 17.8411 12.6666 16.0002 12.6666C14.1592 12.6666 12.6668 14.159 12.6668 15.9999C12.6668 17.8409 14.1592 19.3332 16.0002 19.3332Z" fill="black"/>
</svg>
