<svg width="32" height="32" viewBox="0 0 32 32" fill="none" xmlns="http://www.w3.org/2000/svg">
<path d="M8.75 15C8.75 14.5858 8.41421 14.25 8 14.25C7.58579 14.25 7.25 14.5858 7.25 15L8.75 15ZM24.75 15C24.75 14.5858 24.4142 14.25 24 14.25C23.5858 14.25 23.25 14.5858 23.25 15L24.75 15ZM24 21.5L23.25 21.5L24 21.5ZM22 22.75L10 22.75L10 24.25L22 24.25L22 22.75ZM8.75 21.5L8.75 15L7.25 15L7.25 21.5L8.75 21.5ZM23.25 15L23.25 21.5L24.75 21.5L24.75 15L23.25 15ZM10 22.75C9.30964 22.75 8.75 22.1903 8.75 21.5L7.25 21.5C7.25 23.0188 8.48122 24.25 10 24.25L10 22.75ZM22 24.25C23.5188 24.25 24.75 23.0188 24.75 21.5L23.25 21.5C23.25 22.1904 22.6904 22.75 22 22.75L22 24.25Z" fill="black"/>
<path d="M9 8.75C8.58579 8.75 8.25 9.08579 8.25 9.5C8.25 9.91421 8.58579 10.25 9 10.25L9 8.75ZM15.25 20C15.25 20.4142 15.5858 20.75 16 20.75C16.4142 20.75 16.75 20.4142 16.75 20L15.25 20ZM9 10.25L15 10.25L15 8.75L9 8.75L9 10.25ZM15.25 10.5L15.25 20L16.75 20L16.75 10.5L15.25 10.5ZM15 10.25C15.1381 10.25 15.25 10.3619 15.25 10.5L16.75 10.5C16.75 9.5335 15.9665 8.75 15 8.75L15 10.25Z" fill="black"/>
<path d="M20.5303 16.5303C20.8232 16.2374 20.8232 15.7626 20.5303 15.4697C20.2374 15.1768 19.7626 15.1768 19.4697 15.4697L20.5303 16.5303ZM15.4697 19.4697C15.1768 19.7626 15.1768 20.2374 15.4697 20.5303C15.7626 20.8232 16.2374 20.8232 16.5303 20.5303L15.4697 19.4697ZM19.4697 15.4697L15.4697 19.4697L16.5303 20.5303L20.5303 16.5303L19.4697 15.4697Z" fill="black"/>
<path d="M11.4697 16.5303C11.1768 16.2374 11.1768 15.7626 11.4697 15.4697C11.7626 15.1768 12.2374 15.1768 12.5303 15.4697L11.4697 16.5303ZM16.5303 19.4697C16.8232 19.7626 16.8232 20.2374 16.5303 20.5303C16.2374 20.8232 15.7626 20.8232 15.4697 20.5303L16.5303 19.4697ZM12.5303 15.4697L16.5303 19.4697L15.4697 20.5303L11.4697 16.5303L12.5303 15.4697Z" fill="black"/>
</svg>
