<svg width="32" height="32" viewBox="0 0 1000 1000"  xmlns="http://www.w3.org/2000/svg">
<path fill-rule="evenodd" clip-rule="evenodd"  d="M561.2 170.6C424.4 145.9 286.7 208.8 215.7 328.3 145.7 447.2 158.7 597.4 248.1 702.5 338.4 808.3 484.8 847.1 615.7 800 746.2 753.8 833.5 630.6 833.8 492.2 833.8 472.5 831.8 452.9 827.8 433.7L937.2 414.2C941.8 439.9 944.2 466.1 944.3 492.3 944.5 678.2 827.5 844.1 652.3 906.3 476.6 969.8 279.9 917.7 158.8 775.5 38.7 634.2 21.6 432.3 116.2 272.8 212.1 112.6 397.5 28.9 581 63L561.2 170.6Z" />
</svg>
