<svg xmlns="http://www.w3.org/2000/svg" viewBox="-1084 -5225 32 32">
  <defs>
    <style>
      .cls-2 {
        stroke: rgba(0,0,0,0);
      }
    </style>
  </defs>
  <g id="inline-question" transform="translate(-1230 -5777)">
    <path id="前面オブジェクトで型抜き_126" data-name="前面オブジェクトで型抜き 126" d="M13.667,26.667H13a13,13,0,0,1-13-13V13A13,13,0,0,1,13,0h.666a13,13,0,0,1,13,13v.667a13,13,0,0,1-13,13Zm-.333-24a10.666,10.666,0,1,0,7.543,3.124A10.6,10.6,0,0,0,13.333,2.667Z" transform="translate(148.667 554.667)"/>
    <path id="パス_945" data-name="パス 945" class="cls-2" d="M.43-7.211H2.586a2.279,2.279,0,0,1,2.458-2.24A2.11,2.11,0,0,1,7.4-7.409c0,1.073-.448,1.677-1.708,2.438a3.382,3.382,0,0,0-2.01,3.26l.01.833H5.846v-.635c0-1.073.385-1.625,1.729-2.417A3.986,3.986,0,0,0,9.763-7.5c0-2.229-1.854-3.865-4.6-3.865C2.138-11.367.523-9.576.43-7.211ZM4.784,3.945a1.344,1.344,0,1,0,0-2.687,1.344,1.344,0,1,0,0,2.688Z" transform="translate(156.81 571.544)"/>
  </g>
</svg>
