<svg width="32" height="32" viewBox="0 0 1000 1000"  xmlns="http://www.w3.org/2000/svg">

<path fill-rule="evenodd" clip-rule="evenodd"  d="M546.9 798.4L781.3 668.3 781.3 378.1 546.9 508.4 546.9 798.4ZM515.6 801.6L515.6 509.2 218.8 374.3 218.8 666.3 515.6 801.6ZM239.8 349.5L530.5 481.7 760.6 353.9 470.3 221.6 239.8 349.5ZM483.4 158.9L822.9 313.5C834.1 318.9 841.9 329.6 843.5 342L843.8 346 843.6 686.5C842.5 698.2 836 708.7 824.7 715.6L547.3 869.6C537.6 874.2 526.5 874.5 515.2 870L177.1 716C165.9 710.6 158.1 699.9 156.5 687.6L156.3 683.5 156.4 343.2C157.4 331.9 163.5 321.6 175.1 314.1L452.7 159.9C462.4 155.4 473.5 155 483.4 158.9ZM339.9 628.6L339.9 662.6 316.4 651.7 316.4 617.6 296.9 608.5 328.1 573.9 359.4 637.7 339.9 628.6ZM277.4 599.6L277.4 633.6 253.9 622.7 253.9 588.6 234.4 579.5 265.6 544.8 296.9 608.5 277.4 599.6ZM234.4 624.2L359.4 682.2 359.4 703 234.4 645 234.4 624.2Z" />
</svg>
