<svg width="32" height="32" viewBox="0 0 1000 1000"  xmlns="http://www.w3.org/2000/svg">

<path fill-rule="evenodd" clip-rule="evenodd"  d="M673.4 769.7L673.4 629.2 518.7 555.7 517.2 556.6 517.2 691.6 673.4 769.7ZM704.7 764.9L812.5 700.2 812.5 566 704.7 626.8 704.7 764.9ZM550.9 536.3L686.9 601 794 540.5 657.6 472.3 550.9 536.3ZM360.9 764.9L485.9 689.9 485.9 558.3 484 557.4 360.9 626.8 360.9 764.9ZM329.7 769.7L329.7 629.2 187.5 561.6 187.5 698.6 329.7 769.7ZM450.3 540.5L313.9 472.3 207.1 536.3 343.1 601 450.3 540.5ZM517.2 514.9L625 450.2 625 316 517.2 376.8 517.2 514.9ZM485.9 519.7L485.9 379.2 343.8 311.6 343.8 448.6 485.9 519.7ZM363.4 286.3L499.4 351 606.5 290.5 470.1 222.3 363.4 286.3ZM281.4 280.8C282.4 269.6 288.4 259.4 299.1 252.2L450 161.5C460.4 155.3 473.1 154.5 484.2 159.5L669.8 252.3C680.5 258.8 687.2 270.3 687.5 283.6L687.4 417.2 857.3 502.3C868 508.8 874.7 520.3 875 533.6L874.9 716.9C874.2 728.7 867.8 739.4 857.1 746.2L706.2 836.9C695.8 843.1 683.1 843.8 670.9 838.3L501.5 753.5 362.5 837C352.1 843.2 339.4 844 327.1 838.5L142.7 746.1C132 739.6 125.3 728.1 125 714.8L125.1 530.8C126.1 519.3 132.5 508.9 142.9 502.3L281.3 419.2 281.4 280.8ZM417.4 422L417.4 441.5 404.5 435.3 404.5 415.8 393.8 410.6 410.9 390.8 428.1 427.3 417.4 422ZM383.1 405.4L383 424.9 370.1 418.7 370.1 399.2 359.4 394 376.6 374.2 393.8 410.6 383.1 405.4ZM359.4 419.5L428.1 452.6 428.1 464.5 359.4 431.4 359.4 419.5ZM261.2 672L261.2 691.5 248.3 685.3 248.3 665.8 237.5 660.6 254.7 640.7 271.9 677.3 261.2 672ZM226.8 655.4L226.8 674.9 213.9 668.7 213.9 649.2 203.1 644 220.3 624.2 237.5 660.6 226.8 655.4ZM203.1 669.4L271.9 702.6 271.9 714.5 203.1 681.4 203.1 669.4ZM589.3 662.7L589.3 682.1 576.4 675.9 576.4 656.4 565.6 651.2 582.8 631.4 600 667.8 589.3 662.7ZM554.9 646.1L554.9 665.6 542 659.3 542 639.8 531.3 634.7 548.4 614.8 565.6 651.3 554.9 646.1ZM531.3 660.1L600 693.3 600 705.2 531.3 672 531.3 660.1Z" />
</svg>
