<svg width="24" height="24" viewBox="0 0 24 24" fill="none" xmlns="http://www.w3.org/2000/svg">
<mask id="mask0_4041_63406" style="mask-type:alpha" maskUnits="userSpaceOnUse" x="0" y="0" width="24" height="24">
<rect width="24" height="24" fill="#D9D9D9"/>
</mask>
<g mask="url(#mask0_4041_63406)">
<path d="M7 23C6.78333 23 6.60417 22.9292 6.4625 22.7875C6.32083 22.6458 6.25 22.4667 6.25 22.25V19H5.5C4.8 19 4.20833 18.7583 3.725 18.275C3.24167 17.7917 3 17.2 3 16.5C3 15.8 3.24167 15.2083 3.725 14.725C4.20833 14.2417 4.8 14 5.5 14H6.25V13H4C3.71667 13 3.47917 12.9042 3.2875 12.7125C3.09583 12.5208 3 12.2833 3 12V9C3 8.71667 3.09583 8.47917 3.2875 8.2875C3.47917 8.09583 3.71667 8 4 8H6.25V7H5.5C4.8 7 4.20833 6.75833 3.725 6.275C3.24167 5.79167 3 5.2 3 4.5C3 3.8 3.24167 3.20833 3.725 2.725C4.20833 2.24167 4.8 2 5.5 2H6.25V1.75C6.25 1.53333 6.32083 1.35417 6.4625 1.2125C6.60417 1.07083 6.78333 1 7 1C7.21667 1 7.39583 1.07083 7.5375 1.2125C7.67917 1.35417 7.75 1.53333 7.75 1.75V2H8.5C9.2 2 9.79167 2.24167 10.275 2.725C10.7583 3.20833 11 3.8 11 4.5C11 5.2 10.7583 5.79167 10.275 6.275C9.79167 6.75833 9.2 7 8.5 7H7.75V8H10C10.2833 8 10.5208 8.09583 10.7125 8.2875C10.9042 8.47917 11 8.71667 11 9V12C11 12.2833 10.9042 12.5208 10.7125 12.7125C10.5208 12.9042 10.2833 13 10 13H7.75V14H8.5C9.2 14 9.79167 14.2417 10.275 14.725C10.7583 15.2083 11 15.8 11 16.5C11 17.2 10.7583 17.7917 10.275 18.275C9.79167 18.7583 9.2 19 8.5 19H7.75V22.25C7.75 22.4667 7.67917 22.6458 7.5375 22.7875C7.39583 22.9292 7.21667 23 7 23ZM17 23C16.7833 23 16.6042 22.9292 16.4625 22.7875C16.3208 22.6458 16.25 22.4667 16.25 22.25V19H15.5C14.8 19 14.2083 18.7583 13.725 18.275C13.2417 17.7917 13 17.2 13 16.5C13 15.8 13.2417 15.2083 13.725 14.725C14.2083 14.2417 14.8 14 15.5 14H16.25V13H14C13.7167 13 13.4792 12.9042 13.2875 12.7125C13.0958 12.5208 13 12.2833 13 12V9C13 8.71667 13.0958 8.47917 13.2875 8.2875C13.4792 8.09583 13.7167 8 14 8H16.25V7H15.5C14.8 7 14.2083 6.75833 13.725 6.275C13.2417 5.79167 13 5.2 13 4.5C13 3.8 13.2417 3.20833 13.725 2.725C14.2083 2.24167 14.8 2 15.5 2H16.25V1.75C16.25 1.53333 16.3208 1.35417 16.4625 1.2125C16.6042 1.07083 16.7833 1 17 1C17.2167 1 17.3958 1.07083 17.5375 1.2125C17.6792 1.35417 17.75 1.53333 17.75 1.75V2H18.5C19.2 2 19.7917 2.24167 20.275 2.725C20.7583 3.20833 21 3.8 21 4.5C21 5.2 20.7583 5.79167 20.275 6.275C19.7917 6.75833 19.2 7 18.5 7H17.75V8H20C20.2833 8 20.5208 8.09583 20.7125 8.2875C20.9042 8.47917 21 8.71667 21 9V12C21 12.2833 20.9042 12.5208 20.7125 12.7125C20.5208 12.9042 20.2833 13 20 13H17.75V14H18.5C19.2 14 19.7917 14.2417 20.275 14.725C20.7583 15.2083 21 15.8 21 16.5C21 17.2 20.7583 17.7917 20.275 18.275C19.7917 18.7583 19.2 19 18.5 19H17.75V22.25C17.75 22.4667 17.6792 22.6458 17.5375 22.7875C17.3958 22.9292 17.2167 23 17 23ZM5.5 5H8.5C8.63333 5 8.75 4.95 8.85 4.85C8.95 4.75 9 4.63333 9 4.5C9 4.36667 8.95 4.25 8.85 4.15C8.75 4.05 8.63333 4 8.5 4H5.5C5.36667 4 5.25 4.05 5.15 4.15C5.05 4.25 5 4.36667 5 4.5C5 4.63333 5.05 4.75 5.15 4.85C5.25 4.95 5.36667 5 5.5 5ZM15.5 5H18.5C18.6333 5 18.75 4.95 18.85 4.85C18.95 4.75 19 4.63333 19 4.5C19 4.36667 18.95 4.25 18.85 4.15C18.75 4.05 18.6333 4 18.5 4H15.5C15.3667 4 15.25 4.05 15.15 4.15C15.05 4.25 15 4.36667 15 4.5C15 4.63333 15.05 4.75 15.15 4.85C15.25 4.95 15.3667 5 15.5 5ZM5 11H9V10H5V11ZM15 11H19V10H15V11ZM5.5 17H8.5C8.63333 17 8.75 16.95 8.85 16.85C8.95 16.75 9 16.6333 9 16.5C9 16.3667 8.95 16.25 8.85 16.15C8.75 16.05 8.63333 16 8.5 16H5.5C5.36667 16 5.25 16.05 5.15 16.15C5.05 16.25 5 16.3667 5 16.5C5 16.6333 5.05 16.75 5.15 16.85C5.25 16.95 5.36667 17 5.5 17ZM15.5 17H18.5C18.6333 17 18.75 16.95 18.85 16.85C18.95 16.75 19 16.6333 19 16.5C19 16.3667 18.95 16.25 18.85 16.15C18.75 16.05 18.6333 16 18.5 16H15.5C15.3667 16 15.25 16.05 15.15 16.15C15.05 16.25 15 16.3667 15 16.5C15 16.6333 15.05 16.75 15.15 16.85C15.25 16.95 15.3667 17 15.5 17Z" fill="black"/>
</g>
</svg>
