<svg width="32" height="32" viewBox="0 0 32 32" fill="none" xmlns="http://www.w3.org/2000/svg">
  <path
    d="M21.6568 20.4495C23.1572 18.9717 24 16.9679 24 14.8786C24 12.7893 23.1572 10.7855 21.6568 9.3077C20.9141 8.5761 20.0323 7.99574 19.0616 7.59977C18.091 7.20381 17.0507 7 16 7C14.9493 7 13.909 7.20381 12.9384 7.59977C11.9677 7.99574 11.0859 8.5761 10.3432 9.3077C8.84284 10.7855 8 12.7893 8 14.8786C8 16.9679 8.84284 18.9717 10.3432 20.4495L12.0814 22.1358L14.4161 24.3689L14.5681 24.5016C15.4537 25.2081 16.7508 25.1631 17.585 24.3689L20.3677 21.7027L21.6568 20.4495V20.4495ZM16 18.2501C15.0907 18.2501 14.2187 17.8946 13.5758 17.2616C12.9328 16.6287 12.5716 15.7703 12.5716 14.8752C12.5716 13.9801 12.9328 13.1217 13.5758 12.4888C14.2187 11.8559 15.0907 11.5003 16 11.5003C16.9093 11.5003 17.7813 11.8559 18.4242 12.4888C19.0672 13.1217 19.4284 13.9801 19.4284 14.8752C19.4284 15.7703 19.0672 16.6287 18.4242 17.2616C17.7813 17.8946 16.9093 18.2501 16 18.2501Z"
    fill="currentColor"/>
</svg>
