<svg id="lock.svg" xmlns="http://www.w3.org/2000/svg" width="32" height="32" viewBox="0 0 32 32">
  <defs>
    <style>
      .cls-1 {
        opacity: 0;
      }

      .cls-2 {
        fill-rule: evenodd;
      }
    </style>
  </defs>
  <rect id="BG_のコピー_8" data-name="BG のコピー 8" class="cls-1" width="32" height="32"/>
  <path id="角丸長方形_10_のコピー_6" data-name="角丸長方形 10 のコピー 6" class="cls-2" d="M4335.5,880h-15a0.5,0.5,0,0,1-.5-0.5v-9a0.5,0.5,0,0,1,.5-0.5h1.5v-1a6,6,0,0,1,12,0v1h1.5a0.5,0.5,0,0,1,.5.5v9A0.5,0.5,0,0,1,4335.5,880Zm-3.5-11a4,4,0,1,0-8,0v2h2v-2a2,2,0,0,1,4,0v2h2v-2Zm2,3h-12v6h12v-6Z" transform="translate(-4312 -856)"/>
</svg>
