<svg width="24" height="24" viewBox="0 0 24 24" fill="none" xmlns="http://www.w3.org/2000/svg">
<mask id="mask0_4659_163412" style="mask-type:alpha" maskUnits="userSpaceOnUse" x="-1" y="0" width="25" height="25">
<rect x="-0.0834961" y="0.21875" width="24" height="24" fill="#D9D9D9"/>
</mask>
<g mask="url(#mask0_4659_163412)">
<path d="M11.9165 12.8188L14.4165 15.3188C14.5998 15.5021 14.6915 15.7354 14.6915 16.0188C14.6915 16.3021 14.5998 16.5354 14.4165 16.7188C14.2332 16.9021 13.9998 16.9938 13.7165 16.9938C13.4332 16.9938 13.1998 16.9021 13.0165 16.7188L10.2165 13.9187C10.1165 13.8187 10.0415 13.7063 9.9915 13.5813C9.9415 13.4563 9.9165 13.3271 9.9165 13.1938V9.21875C9.9165 8.93542 10.0123 8.69792 10.204 8.50625C10.3957 8.31458 10.6332 8.21875 10.9165 8.21875C11.1998 8.21875 11.4373 8.31458 11.629 8.50625C11.8207 8.69792 11.9165 8.93542 11.9165 9.21875V12.8188ZM17.9165 7.21875H15.9165C15.6332 7.21875 15.3957 7.12292 15.204 6.93125C15.0123 6.73958 14.9165 6.50208 14.9165 6.21875C14.9165 5.93542 15.0123 5.69792 15.204 5.50625C15.3957 5.31458 15.6332 5.21875 15.9165 5.21875H17.9165V3.21875C17.9165 2.93542 18.0123 2.69792 18.204 2.50625C18.3957 2.31458 18.6332 2.21875 18.9165 2.21875C19.1998 2.21875 19.4373 2.31458 19.629 2.50625C19.8207 2.69792 19.9165 2.93542 19.9165 3.21875V5.21875H21.9165C22.1998 5.21875 22.4373 5.31458 22.629 5.50625C22.8207 5.69792 22.9165 5.93542 22.9165 6.21875C22.9165 6.50208 22.8207 6.73958 22.629 6.93125C22.4373 7.12292 22.1998 7.21875 21.9165 7.21875H19.9165V9.21875C19.9165 9.50208 19.8207 9.73958 19.629 9.93125C19.4373 10.1229 19.1998 10.2188 18.9165 10.2188C18.6332 10.2188 18.3957 10.1229 18.204 9.93125C18.0123 9.73958 17.9165 9.50208 17.9165 9.21875V7.21875ZM10.9165 22.2188C9.6665 22.2188 8.49567 21.9854 7.404 21.5188C6.31234 21.0521 5.35817 20.4104 4.5415 19.5938C3.72484 18.7771 3.08317 17.8229 2.6165 16.7312C2.14984 15.6396 1.9165 14.4688 1.9165 13.2188C1.9165 11.9688 2.14984 10.7979 2.6165 9.70625C3.08317 8.61458 3.72484 7.66042 4.5415 6.84375C5.35817 6.02708 6.31234 5.38542 7.404 4.91875C8.49567 4.45208 9.6665 4.21875 10.9165 4.21875C11.0998 4.21875 11.2707 4.22292 11.429 4.23125C11.5873 4.23958 11.7582 4.26042 11.9415 4.29375C12.2248 4.29375 12.4623 4.38958 12.654 4.58125C12.8457 4.77292 12.9415 5.01042 12.9415 5.29375C12.9415 5.57708 12.8457 5.81458 12.654 6.00625C12.4623 6.19792 12.2248 6.29375 11.9415 6.29375C11.7582 6.29375 11.5873 6.28125 11.429 6.25625C11.2707 6.23125 11.0998 6.21875 10.9165 6.21875C8.94984 6.21875 7.2915 6.89375 5.9415 8.24375C4.5915 9.59375 3.9165 11.2521 3.9165 13.2188C3.9165 15.1854 4.5915 16.8438 5.9415 18.1938C7.2915 19.5438 8.94984 20.2188 10.9165 20.2188C12.8832 20.2188 14.5415 19.5438 15.8915 18.1938C17.2415 16.8438 17.9165 15.1854 17.9165 13.2188C17.9165 12.9354 18.0123 12.6979 18.204 12.5063C18.3957 12.3146 18.6332 12.2188 18.9165 12.2188C19.1998 12.2188 19.4373 12.3146 19.629 12.5063C19.8207 12.6979 19.9165 12.9354 19.9165 13.2188C19.9165 14.4688 19.6832 15.6396 19.2165 16.7312C18.7498 17.8229 18.1082 18.7771 17.2915 19.5938C16.4748 20.4104 15.5207 21.0521 14.429 21.5188C13.3373 21.9854 12.1665 22.2188 10.9165 22.2188Z" fill="black"/>
</g>
</svg>
