<svg width="20" height="20" viewBox="0 0 20 20" fill="none" xmlns="http://www.w3.org/2000/svg">
  <circle cx="10" cy="10" r="9.5" fill="#1E88E5" stroke="#1E88E5"/>
  <path d="M9.1373 11.3149V14.5029H7.27295V5.45459H10.8028C11.4822 5.45459 12.0788 5.57888 12.5926 5.82746C13.1104 6.07604 13.5082 6.43026 13.7857 6.89014C14.0633 7.34587 14.2021 7.86581 14.2021 8.44997C14.2021 9.33657 13.8976 10.0367 13.2886 10.5505C12.6837 11.0601 11.8447 11.3149 10.7717 11.3149H9.1373ZM9.1373 9.80473H10.8028C11.2958 9.80473 11.6707 9.68873 11.9276 9.45672C12.1886 9.22471 12.3191 8.89327 12.3191 8.4624C12.3191 8.0191 12.1886 7.66073 11.9276 7.3873C11.6666 7.11386 11.3062 6.973 10.8463 6.96471H9.1373V9.80473Z" fill="white"/>
</svg>
