<svg width="24" height="24" viewBox="0 0 24 24" fill="none" xmlns="http://www.w3.org/2000/svg">
<path d="M18.2503 4C17.9033 4 17.3936 4.46225 17.1868 4.66214L16.6879 5.15142C16.6027 5.23383 16.4896 5.2792 16.3665 5.2792C16.2434 5.2792 16.1296 5.23383 16.0446 5.15171L15.5382 4.66097C15.1982 4.33257 14.6348 4 14.2154 4C13.7958 4 13.2322 4.33257 12.8923 4.66104L12.3848 5.15149C12.2995 5.2339 12.1845 5.27927 12.0608 5.27927C11.9371 5.27927 11.822 5.2339 11.7368 5.15149L11.2291 4.66104C10.8975 4.34053 10.3209 4 9.9056 4C9.49033 4 8.91375 4.34053 8.58206 4.66104L8.07459 5.15149C7.98926 5.2339 7.87419 5.27927 7.75042 5.27927C7.62673 5.27927 7.51159 5.2339 7.42626 5.15149L6.91872 4.66104C6.89066 4.63408 6.21771 4 5.81055 4C5.3459 4 5.16895 4.6297 5.16895 5.16895V18.831C5.16895 19.3703 5.3459 20 5.81055 20C6.20193 20 6.83338 19.4066 6.90228 19.3401L7.41873 18.8485C7.504 18.7661 7.62104 18.7207 7.74553 18.7207C7.86995 18.7207 7.98626 18.7661 8.07181 18.8488L8.5806 19.339C8.91221 19.6594 9.48916 20 9.90487 20C10.3204 20 10.8972 19.6594 11.2287 19.339L11.7366 18.8485C11.8219 18.7661 11.937 18.7207 12.0608 18.7207C12.1845 18.7207 12.2997 18.7661 12.385 18.8485L12.8926 19.339C13.2242 19.6594 13.8008 20 14.2161 20C14.6314 20 15.208 19.6594 15.5396 19.339L16.0473 18.8485C16.1325 18.7661 16.2476 18.7207 16.3714 18.7207C16.4951 18.7207 16.6103 18.7661 16.6955 18.8485L17.2031 19.339C17.4586 19.5858 17.9238 20 18.2503 20C18.6326 20 18.831 19.5848 18.831 18.831V5.16895C18.831 4.4152 18.6327 4 18.2503 4ZM15.8356 16.0183H12.4749V14.6301H15.8356V16.0183ZM15.8356 12.6575H8.23744V11.3425H15.8356V12.6575ZM15.8356 9.36986H8.23744V7.98173H15.8356V9.36986Z" />
</svg>
