<svg width="32" height="32" viewBox="0 0 1000 1000"  xmlns="http://www.w3.org/2000/svg">

<path fill-rule="evenodd" clip-rule="evenodd"  d="M187.6 500C187.8 327.5 327.6 187.7 500.1 187.5 672.6 187.7 812.3 327.5 812.6 500 812.4 672.5 672.6 812.3 500.1 812.5 327.5 812.3 187.7 672.5 187.6 500L187.6 500ZM257.8 500C258 633.7 366.3 742 500 742.2 633.7 742 742 633.7 742.2 500 742 366.3 633.7 258 500 257.9 366.3 258 258 366.4 257.9 500L257.8 500ZM531.2 625L531.2 375 625 375 625 625 531.2 625ZM375 625L375 375 468.7 375 468.7 625 375 625Z" />
</svg>
