<svg id="pencil.svg" xmlns="http://www.w3.org/2000/svg" width="32" height="32" viewBox="0 0 32 32">
  <defs>
    <style>
      .cls-1 {
        opacity: 0;
      }

      .cls-2 {
        fill-rule: evenodd;
      }
    </style>
  </defs>
  <rect id="BG" class="cls-1" width="32" height="32"/>
  <path id="pencil" class="cls-2" d="M4328.66,609.678l5.66,5.657-7.07,7.071-5.66,1.414-1.41-1.414,1.41-5.657Zm-0.7,3.536,2.83,2.828-4.25,4.243-2.82-2.829Zm5.65-4.243,1.42,1.414a3,3,0,0,1,0,4.243l-0.71.707-5.66-5.657,0.71-.707A3,3,0,0,1,4333.61,608.971Zm-1.41,1.414,1.41,1.415a0.983,0.983,0,0,1,0,1.414l-0.7.707-2.83-2.828,0.71-.708A1,1,0,0,1,4332.2,610.385Zm-9.19,7.779,2.83,2.828-2.12.707-1.42-1.414Zm6.36-6.364,2.83,2.828-0.71.707-2.83-2.828Z" transform="translate(-4312 -600)"/>
</svg>
