<svg width="25" height="25" viewBox="0 0 25 25" fill="none" xmlns="http://www.w3.org/2000/svg">
  <g clip-path="url(#clip0)">
    <path d="M12.5371 5.07574C10.6479 5.07574 9.11133 6.69928 9.11133 8.69537C9.11133 10.691 10.6479 12.3145 12.5371 12.3145C14.4263 12.3145 15.9629 10.691 15.9629 8.69537C15.9629 6.69928 14.4263 5.07574 12.5371 5.07574ZM12.5371 10.8497C11.4556 10.8497 10.5762 9.88336 10.5762 8.69537C10.5762 7.50739 11.4556 6.54059 12.5371 6.54059C13.6187 6.54059 14.498 7.50739 14.498 8.69537C14.498 9.88336 13.6187 10.8497 12.5371 10.8497Z" fill="black"/>
    <path d="M19.8317 5.56244H19.8082C18.1695 5.57611 16.8483 6.99262 16.8624 8.71967C16.8766 10.4384 18.2081 11.8276 19.8365 11.8276H19.86C20.6632 11.8207 21.4132 11.4824 21.9713 10.8745C22.5162 10.2802 22.8126 9.4975 22.8058 8.67035C22.7916 6.9516 21.4601 5.56244 19.8317 5.56244ZM20.8917 9.88373C20.6114 10.1894 20.2408 10.3593 19.8478 10.3627H19.8365C19.0109 10.3627 18.3346 9.62299 18.3273 8.70746C18.3195 7.78803 18.9894 7.03412 19.8204 7.02728H19.8317C20.6573 7.02728 21.3336 7.76752 21.3409 8.68256C21.3448 9.13763 21.1852 9.56439 20.8917 9.88373Z" fill="black"/>
    <path d="M20.5908 12.1938H19.0771C17.9126 12.1938 16.8521 12.6479 16.0635 13.3882C15.2959 12.9341 14.4019 12.6733 13.4473 12.6733H11.6265C10.6533 12.6733 9.74219 12.9443 8.96533 13.4145C8.17334 12.6587 7.10156 12.1938 5.92285 12.1938H4.40918C1.97803 12.1938 0 14.1719 0 16.603V18.4697H6.47168V19.9243H18.602V18.4697H25V16.603C25 14.1719 23.022 12.1938 20.5908 12.1938ZM6.5376 17.0049H1.46484V16.603C1.46484 14.9795 2.78564 13.6587 4.40918 13.6587H5.92285C6.64551 13.6587 7.3081 13.9204 7.82129 14.3545C7.15869 15.0791 6.70019 15.9932 6.5376 17.0049ZM17.1372 18.4595H14.668H10.332H7.93652V17.8281C7.93652 17.5454 7.96875 17.2695 8.0293 17.0049C8.14795 16.4853 8.37695 16.0068 8.68994 15.5962C9.00098 15.1875 9.39551 14.8457 9.84814 14.5962C10.376 14.3042 10.9824 14.1382 11.6265 14.1382H13.4473C14.0688 14.1382 14.6543 14.2925 15.1685 14.5649C15.6206 14.8042 16.0176 15.1352 16.334 15.5327C16.6728 15.9575 16.9194 16.458 17.0444 17.0049C17.105 17.2695 17.1372 17.5454 17.1372 17.8281V18.4595ZM23.5352 17.0049H18.5361C18.3706 15.977 17.8999 15.0498 17.2207 14.3193C17.7275 13.9062 18.374 13.6587 19.0771 13.6587H20.5908C22.2144 13.6587 23.5352 14.9795 23.5352 16.603V17.0049Z" fill="black"/>
    <path d="M5.16369 5.56244H5.14025C3.50158 5.57611 2.18029 6.99262 2.19445 8.71967C2.20861 10.4384 3.54015 11.8276 5.16857 11.8276H5.19201C5.99523 11.8207 6.74523 11.4824 7.30334 10.8745C7.84826 10.2802 8.14464 9.4975 8.13781 8.67035C8.12365 6.9516 6.79211 5.56244 5.16369 5.56244ZM6.22375 9.88373C5.94347 10.1894 5.57287 10.3593 5.1798 10.3627H5.16857C4.34289 10.3627 3.66662 9.62299 3.65929 8.70746C3.65148 7.78803 4.3214 7.03412 5.15246 7.02728H5.16369C5.98937 7.02728 6.66564 7.76752 6.67297 8.68256C6.67687 9.13763 6.5172 9.56439 6.22375 9.88373Z" fill="black"/>
  </g>
  <defs>
    <clipPath id="clip0">
    <rect width="25" height="25" fill="white"/>
    </clipPath>
  </defs>
</svg>
