<svg id="printer.svg" xmlns="http://www.w3.org/2000/svg" width="32" height="32" viewBox="0 0 32 32">
  <defs>
    <style>
      .cls-2 {
        fill-rule: evenodd;
      }
    </style>
  </defs>
  <path id="Printer" class="cls-2" d="M4334,465h-12a3,3,0,0,1-3-3v-9a3,3,0,0,1,3-3h1v-4h10v4h1a3,3,0,0,1,3,3v9A3,3,0,0,1,4334,465Zm-10-11h-0.5a0.5,0.5,0,0,0,0,1h0.5v-1Zm7-6h-6v7h6v-7Zm4,5a1,1,0,0,0-1-1h-2v1h1a1,1,0,0,1,1,1v1a1,1,0,0,1-1,1h-10a1,1,0,0,1-1-1v-1a1,1,0,0,1,1-1h1v-1h-2a1,1,0,0,0-1,1v4h14v-4Zm-3,1v1h0.5a0.5,0.5,0,0,0,0-1H4332Zm3,4h-14v4a1,1,0,0,0,1,1h12a1,1,0,0,0,1-1v-4Zm-5,1h4v1h-4v-1Zm0-9h-4v-1h4v1Zm0,2h-4v-1h4v1Zm-1,2h-3v-1h3v1Z" transform="translate(-4312 -440)"/>
</svg>
