<svg width="24" height="24" viewBox="0 0 24 24" fill="none" xmlns="http://www.w3.org/2000/svg">
<path d="M7.25288 11.9082V10.4723C7.25382 10.1738 7.40659 9.89857 7.65217 9.75891C7.89679 9.61826 8.19298 9.63546 8.4226 9.80344L10.4218 11.2393C10.6927 11.4397 10.8145 11.805 10.7227 12.146C10.6252 12.487 10.3328 12.7188 10.0028 12.7177H8.00271C7.58936 12.7177 7.25288 12.3555 7.25288 11.9082ZM14.0013 12.7177H16.0014C16.4147 12.7177 16.7512 12.3555 16.7512 11.9082V10.4723C16.7503 10.1738 16.5975 9.89857 16.3519 9.75891C16.1073 9.61826 15.8111 9.63546 15.5815 9.80344L13.5823 11.2393C13.3114 11.4397 13.1896 11.805 13.2814 12.146C13.3789 12.487 13.6713 12.7188 14.0013 12.7177ZM21.999 9.5444V9.93297L21.6691 16.2908C21.5463 17.8421 20.8921 19.289 19.832 20.3454C18.772 21.4019 17.3839 21.9928 15.9414 21.9999C15.6986 21.9979 15.4624 21.919 15.2609 21.7733C14.8082 21.925 14.3358 22.0009 13.8616 21.9999H13.4613C13.2608 22.0019 13.0611 21.9655 12.8718 21.8927C12.3263 22.0323 11.7574 22.0323 11.2119 21.8927C11.0235 21.9655 10.8229 22.0019 10.6223 21.9999H10.2221C9.74785 22.0009 9.27641 21.925 8.82278 21.7733C8.6222 21.92 8.38508 21.9989 8.14326 21.9999C6.70361 21.9928 5.31842 21.4059 4.25836 20.3535C3.19923 19.3011 2.54128 17.8602 2.41474 16.3118L2.00422 9.88924C1.99859 9.77489 1.99859 9.65954 2.00422 9.54419C2.00422 8.3987 2.42599 7.30077 3.17581 6.49129C3.92563 5.68182 4.94258 5.22641 6.00353 5.22641C6.51715 5.22641 7.02609 5.33266 7.50317 5.54009C8.16862 5.2527 8.89503 5.1667 9.60266 5.29116V5.14039C9.59985 4.32073 9.8098 3.51729 10.2091 2.82109C10.6084 2.12389 11.181 1.56328 11.8624 1.20103C12.4941 0.857993 13.2561 0.96019 13.7913 1.46007C14.3321 1.95895 14.5337 2.7634 14.3012 3.48895C14.17 3.91293 14.1025 4.35819 14.1016 4.80544V5.3883C14.9011 5.19199 15.7371 5.25978 16.501 5.58258C17.7279 5.04728 19.1197 5.20108 20.2201 5.99341C21.3214 6.78675 21.9859 8.11558 21.999 9.5444ZM11.1023 5.14056V5.38848C11.5981 5.28627 12.1061 5.28627 12.6019 5.38848V4.80562C12.6047 4.18229 12.6994 3.56298 12.8822 2.97103C12.9169 2.87085 12.8887 2.75752 12.8119 2.69074C12.7285 2.62598 12.616 2.62598 12.5316 2.69074C11.6674 3.15216 11.1145 4.0983 11.1023 5.14056ZM20.4703 9.5444C20.4647 8.07611 19.3606 6.88914 18.0006 6.88914C17.5967 6.89724 17.2011 7.01664 16.8506 7.2342C16.6294 7.36271 16.3622 7.36271 16.1411 7.2342C15.424 6.82943 14.5683 6.82943 13.8513 7.2342C13.6339 7.36271 13.3695 7.36271 13.1521 7.2342C12.4304 6.83448 11.5737 6.83448 10.852 7.2342C10.6346 7.36271 10.3703 7.36271 10.1528 7.2342C9.43578 6.82943 8.58005 6.82943 7.86303 7.2342C7.64183 7.36271 7.3747 7.36271 7.15352 7.2342C6.80299 7.01664 6.40745 6.89722 6.00348 6.88914C4.64349 6.88914 3.53927 8.07611 3.53375 9.5444C3.52907 9.61624 3.52907 9.68809 3.53375 9.75993L3.86367 16.2362C3.95646 17.3341 4.41103 18.3581 5.14492 19.1233C5.87974 19.8883 6.84419 20.3426 7.86298 20.4033C7.93047 20.2829 8.02701 20.1858 8.14324 20.122C8.35506 20.0148 8.60062 20.0148 8.81246 20.122C9.23517 20.3365 9.69631 20.4468 10.1621 20.4458H10.5624C10.6083 20.462 10.657 20.462 10.702 20.4458C10.8951 20.3204 11.1294 20.292 11.3422 20.371C11.7555 20.5319 12.2082 20.5319 12.6216 20.371C12.704 20.3538 12.7893 20.3538 12.8718 20.371C13.0096 20.373 13.1436 20.4135 13.2617 20.4894C13.3076 20.5055 13.3564 20.5055 13.4014 20.4894H13.8016C14.2524 20.4894 14.6976 20.3902 15.111 20.1979C15.1888 20.1514 15.2731 20.122 15.3612 20.1119C15.6537 20.0633 15.9442 20.208 16.1007 20.4782C17.1224 20.4155 18.0887 19.9571 18.8226 19.188C19.5575 18.419 20.0102 17.3909 20.1001 16.2908L20.4301 9.91175C20.4516 9.79032 20.4647 9.66786 20.4703 9.5444ZM11.4725 14.52H12.4726C12.735 14.522 12.9769 14.3742 13.1118 14.1314C13.2365 13.8865 13.2365 13.589 13.1118 13.3441L12.6123 12.2644C12.4679 12.0155 12.2149 11.8637 11.9421 11.8637C11.6693 11.8637 11.4163 12.0155 11.2719 12.2644L10.7724 13.3441C10.6477 13.589 10.6477 13.8865 10.7724 14.1314C10.9223 14.4066 11.2091 14.5594 11.5025 14.52H11.4725ZM17.3014 14.0666C17.1252 13.9695 16.92 13.9523 16.7316 14.0191C16.5441 14.0869 16.3885 14.2316 16.3013 14.4228L15.7615 15.5774L15.5019 15.2971C15.3332 15.1119 15.0895 15.0269 14.8514 15.0704C14.6152 15.1129 14.4118 15.2728 14.3012 15.5025L13.7613 16.6571L13.5017 16.3768C13.2093 16.0611 12.735 16.0611 12.4417 16.3768L11.9721 16.8838L11.5025 16.3768C11.2091 16.0611 10.7349 16.0611 10.4425 16.3768L10.1828 16.6571L9.64297 15.5025C9.53237 15.2728 9.32898 15.1129 9.09278 15.0704C8.85471 15.0269 8.61196 15.1119 8.44326 15.2971L8.18364 15.5774L7.64377 14.4228C7.45632 14.0241 7.0036 13.8643 6.6334 14.0666C6.26316 14.27 6.11603 14.7578 6.30347 15.1574L7.30355 17.3158C7.41321 17.5455 7.61754 17.7054 7.85281 17.7479C8.09087 17.7915 8.33363 17.7065 8.50327 17.5213L8.76288 17.241L9.30275 18.3956C9.41241 18.6243 9.61674 18.7841 9.85294 18.8266C10.0901 18.8702 10.3328 18.7862 10.5025 18.6L10.972 18.093L11.4416 18.6C11.734 18.9157 12.2092 18.9157 12.5017 18.6L12.9712 18.093L13.4408 18.6C13.5814 18.7518 13.7726 18.8378 13.9713 18.8378H14.0913C14.3275 18.7953 14.5318 18.6354 14.6415 18.4057L15.1813 17.2511L15.4409 17.5314C15.6106 17.7176 15.8534 17.8016 16.0914 17.7581C16.3267 17.7156 16.531 17.5557 16.6407 17.327L17.6407 15.1686V15.1676C17.7391 14.9783 17.7607 14.7537 17.7026 14.5463C17.6445 14.3388 17.5095 14.1658 17.3305 14.0666L17.3014 14.0666Z" fill="black" stroke="black" stroke-width="0.2"/>
</svg>
