<svg width="32" height="32" viewBox="0 0 32 32" fill="none" xmlns="http://www.w3.org/2000/svg">
  <path d="M7.44453 16.183C7.44465 16.183 7.44477 16.183 7.44489 16.183L8.63015 16.1821C8.87561 16.1819 9.07444 15.9828 9.07426 15.7373C9.0732 14.2617 9.54813 12.8605 10.4477 11.6854C11.7182 10.0257 13.6508 9.07373 15.7499 9.07373C17.2248 9.07373 18.6232 9.5476 19.7943 10.4441C20.1825 10.7412 20.5309 11.0731 20.8388 11.437L18.6501 11.0506C18.5342 11.0301 18.4146 11.0565 18.318 11.1241C18.2214 11.1917 18.1557 11.2949 18.1352 11.411L17.9291 12.5782C17.8864 12.8199 18.0478 13.0505 18.2895 13.0931L23.542 14.0204C23.5677 14.025 23.5934 14.0272 23.6192 14.0272C23.7098 14.0272 23.7989 13.9995 23.8741 13.9469C23.9707 13.8792 24.0364 13.7761 24.0569 13.66L24.9842 8.40749C25.0269 8.16576 24.8655 7.93523 24.6238 7.89256L23.4566 7.6865C23.2144 7.64365 22.9843 7.80521 22.9417 8.04694L22.5514 10.2574C22.1137 9.71448 21.6109 9.22254 21.0552 8.79709C19.5194 7.62143 17.6853 7 15.7513 7C13.0002 7 10.4668 8.24826 8.80065 10.4246C7.62131 11.9652 6.9987 13.8028 7 15.7389C7.00006 15.8567 7.047 15.9697 7.13038 16.0531C7.21376 16.1363 7.32672 16.183 7.44453 16.183Z" fill="#000"/>
  <path d="M24.8694 16.0157C24.7861 15.9325 24.6731 15.8857 24.5553 15.8857C24.5552 15.8857 24.5551 15.8857 24.555 15.8857L23.3697 15.8866C23.1242 15.8868 22.9254 16.0859 22.9256 16.3314C22.9267 17.807 22.4517 19.2082 21.5522 20.3833C20.2816 22.043 18.349 22.995 16.2499 22.995C14.7751 22.995 13.3766 22.5211 12.2055 21.6246C11.8174 21.3275 11.4689 20.9956 11.161 20.6318L13.3497 21.0181C13.4659 21.0387 13.5853 21.0122 13.6818 20.9446C13.7784 20.877 13.8441 20.7738 13.8646 20.6577L14.0706 19.4905C14.1133 19.2488 13.9519 19.0183 13.7102 18.9756L8.45779 18.0483C8.34188 18.0279 8.22228 18.0543 8.12568 18.1218C8.02909 18.1895 7.96336 18.2926 7.94286 18.4087L7.01563 23.6612C6.97296 23.9029 7.13433 24.1335 7.37607 24.1761L8.54325 24.3822C8.56939 24.3868 8.5954 24.3891 8.62106 24.3891C8.83263 24.3891 9.02014 24.2374 9.05825 24.0218L9.44849 21.8113C9.88627 22.3542 10.389 22.8462 10.9448 23.2716C12.4804 24.4473 14.3145 25.0687 16.2486 25.0687C18.9997 25.0687 21.5331 23.8204 23.1992 21.6441C24.3785 20.1035 25.0011 18.2659 24.9998 16.3299C24.9997 16.212 24.9528 16.099 24.8694 16.0157Z" fill="#000"/>
</svg>
