<svg width="32" height="32" viewBox="0 0 1000 1000"  xmlns="http://www.w3.org/2000/svg">

<path fill-rule="evenodd" clip-rule="evenodd"  d="M777.2 696.3L733 740.5 598.6 606.1C519.1 662.6 409.7 648.8 346.8 574.4 283.8 499.9 288.4 389.7 357.4 320.7 426.3 251.8 536.5 247.2 611 310.1 685.4 373 699.3 482.5 642.8 562L777.2 696.3 777.2 696.3ZM401.5 364.9C352.7 413.7 352.7 492.9 401.5 541.7 450.3 590.5 529.5 590.5 578.3 541.7 627.1 492.9 627.1 413.7 578.3 364.9 529.5 316.2 450.4 316.2 401.5 364.9Z" />
</svg>
