<svg width="32" height="32" viewBox="0 0 1000 1000"  xmlns="http://www.w3.org/2000/svg">

<path fill-rule="evenodd" clip-rule="evenodd"  d="M686 338.2C701.2 338.2 713.7 349.8 715.2 364.6L715.4 367.6 715.4 610.8 728.5 593.7C737.8 581.7 754.5 578.8 767.2 586.5L769.8 588.4C781.8 597.6 784.7 614.3 776.9 627L775.1 629.6 708.6 715.8 706.9 717.7 704.7 719.8 702 721.7 699.2 723.3 696.7 724.4 693.5 725.5 690.9 726 688.3 726.4 685.2 726.5 681.9 726.2 678.6 725.6 674.8 724.3 672.1 723 669.5 721.4 667.2 719.7 665.3 718 663.3 715.8 588.6 631.1C577.9 618.9 579 600.3 591.2 589.6 602.6 579.6 619.5 579.9 630.5 589.9L632.7 592.2 656.5 619.2 656.5 367.6C656.5 352.4 668.1 339.9 682.9 338.4L686 338.2ZM468.4 635C483.2 635 495.2 647 495.2 661.8 495.2 676.5 483.2 688.5 468.4 688.5L308 688.5C293.2 688.5 281.3 676.5 281.3 661.8 281.3 647 293.2 635 308 635L468.4 635ZM575.4 442.5C590.1 442.5 602.1 454.5 602.1 469.3 602.1 484 590.1 496 575.4 496L308 496C293.2 496 281.3 484 281.3 469.3 281.3 454.5 293.2 442.5 308 442.5L575.4 442.5ZM682.3 250C697.1 250 709.1 262 709.1 276.7 709.1 291.5 697.1 303.5 682.3 303.5L308 303.5C293.2 303.5 281.3 291.5 281.3 276.7 281.3 262 293.2 250 308 250L682.3 250Z" />
</svg>
