<svg width="24" height="24" viewBox="0 0 24 24" fill="none" xmlns="http://www.w3.org/2000/svg">
<path d="M4 12.1504V13.8801C4 14.1986 4.23353 14.4567 4.52175 14.4567H5.04349V19.6457C5.04349 19.9643 5.27702 20.2223 5.56524 20.2223H7.65219C7.94041 20.2223 8.17394 19.9643 8.17394 19.6457V14.4567H15.8261V19.6457C15.8261 19.9643 16.0596 20.2223 16.3478 20.2223H18.4348C18.723 20.2223 18.9565 19.9643 18.9565 19.6457V14.4567H19.4783C19.7665 14.4567 20 14.1986 20 13.8801V12.1504H4Z"/>
<path d="M17.6769 5.36874C17.5916 5.14395 17.4067 5 17.2032 5H6.42067C6.2172 5 6.03227 5.14398 5.94702 5.36874L4 10.5H19.6239L17.6769 5.36874Z"/>
</svg>
