<svg width="32" height="32" viewBox="0 0 32 32" fill="none" xmlns="http://www.w3.org/2000/svg">
<rect width="32" height="32" fill="white"/>
<path fill-rule="evenodd" clip-rule="evenodd" d="M12.555 18.6201L14.5033 21.5068L13.7452 23.0421C12.2722 24.3807 11.4507 25.0201 11.2806 24.9603C10.9609 24.8479 10.3736 23.5539 10.3736 22.6491L11.8573 21.5068L12.555 18.6201ZM17.3543 10.7198C17.9622 11.128 18.2805 13.791 18.7309 14.4533C19.1812 15.1155 21.1087 15.5403 21.3449 15.739C21.5811 15.9377 21.1466 17.3436 20.4786 17.1598C19.8105 16.976 17.8803 16.2741 17.7118 16.0914C17.5432 15.9088 16.9878 15.0175 16.9878 14.651C16.9878 14.2845 16.2612 17.8327 16.2612 17.8327C16.2612 17.8327 19.8892 23.139 20.4786 24.0318C20.8865 24.7793 18.0202 24.4484 17.7118 24.2401C17.4033 24.0318 13.0764 17.5203 12.9661 17.1598C12.8925 16.9195 13.1942 15.5379 13.8713 13.0149C12.7721 13.9738 12.1853 14.5192 12.1108 14.651C11.9991 14.8488 11.6584 16.7093 11.6584 17.1598C11.6584 17.6104 10.2335 17.8327 10.0499 17.1598C9.91825 16.0327 10.5176 13.8333 10.5176 13.5507C10.5176 13.2681 13.6587 10.7241 14.1466 10.5048C14.6345 10.2854 16.161 10.0716 17.3543 10.7198ZM21.7163 17.7919C22.0644 17.6828 21.9007 19.5921 21.9007 20.1998C21.5461 20.8261 19.378 20.8 19.0018 20.3893C18.6257 19.9786 19.1802 17.761 19.4145 17.7919C20.3144 18.3324 21.01 18.3324 21.7163 17.7919ZM17.061 6C18.0915 6 18.9268 6.84404 18.9268 7.88521C18.9268 8.92639 18.0915 9.77043 17.061 9.77043C16.0305 9.77043 15.1951 8.92639 15.1951 7.88521C15.1951 6.84404 16.0305 6 17.061 6Z" fill="black"/>
</svg>
