<svg id="trashcan.svg" xmlns="http://www.w3.org/2000/svg" width="32" height="32" viewBox="0 0 32 32">
  <defs>
    <style>
      .cls-1 {
        opacity: 0;
      }

      .cls-2 {
        fill-rule: evenodd;
      }
    </style>
  </defs>
  <rect id="BG" class="cls-1" width="32" height="32"/>
  <path id="Trashcam" class="cls-2" d="M4335,551h-1v9a1,1,0,0,1-1,1h-10a1,1,0,0,1-1-1v-9h-1a1,1,0,0,1-1-1v-4a1,1,0,0,1,1-1h3v-1a2,2,0,0,1,2-2h4a2,2,0,0,1,2,2v1h3a1,1,0,0,1,1,1v4A1,1,0,0,1,4335,551Zm-11,7.751a0.248,0.248,0,0,0,.25.249h7.5a0.248,0.248,0,0,0,.25-0.249V550h-8v8.75Zm10-11.5a0.249,0.249,0,0,0-.25-0.251H4330v-2a1,1,0,0,0-1-1h-2a1,1,0,0,0-1,1v2h-3.75a0.249,0.249,0,0,0-.25.251v1.5a0.249,0.249,0,0,0,.25.249h11.5a0.249,0.249,0,0,0,.25-0.249v-1.5Zm-7-2a0.249,0.249,0,0,1,.25-0.25h1.5a0.249,0.249,0,0,1,.25.25V547h-2v-1.75Zm3.5,12.75a0.5,0.5,0,0,1-.5-0.5v-6a0.5,0.5,0,1,1,1,0v6A0.5,0.5,0,0,1,4330.5,558Zm-2.53,0a0.5,0.5,0,0,1-.5-0.5v-6a0.5,0.5,0,1,1,1,0v6A0.5,0.5,0,0,1,4327.97,558Zm-2.47,0a0.5,0.5,0,0,1-.5-0.5v-6a0.5,0.5,0,1,1,1,0v6A0.5,0.5,0,0,1,4325.5,558Z" transform="translate(-4312 -536)"/>
</svg>
