<svg width="32" height="32" viewBox="0 0 32 32" fill="none" xmlns="http://www.w3.org/2000/svg">
<mask id="mask0_7104_1889" style="mask-type:alpha" maskUnits="userSpaceOnUse" x="5" y="5" width="22" height="22">
<rect x="5" y="5" width="22" height="22" fill="#D9D9D9"/>
</mask>
<g mask="url(#mask0_7104_1889)">
<path d="M16 19.6667C17.1458 19.6667 18.1198 19.2656 18.9219 18.4636C19.724 17.6615 20.125 16.6875 20.125 15.5417C20.125 14.3959 19.724 13.4219 18.9219 12.6198C18.1198 11.8177 17.1458 11.4167 16 11.4167C14.8542 11.4167 13.8802 11.8177 13.0781 12.6198C12.2761 13.4219 11.875 14.3959 11.875 15.5417C11.875 16.6875 12.2761 17.6615 13.0781 18.4636C13.8802 19.2656 14.8542 19.6667 16 19.6667ZM16 18.0167C15.3125 18.0167 14.7281 17.7761 14.2469 17.2948C13.7656 16.8136 13.525 16.2292 13.525 15.5417C13.525 14.8542 13.7656 14.2698 14.2469 13.7886C14.7281 13.3073 15.3125 13.0667 16 13.0667C16.6875 13.0667 17.2719 13.3073 17.7531 13.7886C18.2344 14.2698 18.475 14.8542 18.475 15.5417C18.475 16.2292 18.2344 16.8136 17.7531 17.2948C17.2719 17.7761 16.6875 18.0167 16 18.0167ZM16 22.4167C13.9528 22.4167 12.0851 21.8667 10.3969 20.7667C8.70869 19.6667 7.37571 18.2153 6.39793 16.4125C6.32154 16.275 6.26425 16.1337 6.22605 15.9886C6.18786 15.8434 6.16876 15.6945 6.16876 15.5417C6.16876 15.3889 6.18786 15.24 6.22605 15.0948C6.26425 14.9497 6.32154 14.8084 6.39793 14.6709C7.37571 12.8681 8.70869 11.4167 10.3969 10.3167C12.0851 9.21669 13.9528 8.66669 16 8.66669C18.0472 8.66669 19.9149 9.21669 21.6031 10.3167C23.2913 11.4167 24.6243 12.8681 25.6021 14.6709C25.6785 14.8084 25.7358 14.9497 25.774 15.0948C25.8122 15.24 25.8313 15.3889 25.8313 15.5417C25.8313 15.6945 25.8122 15.8434 25.774 15.9886C25.7358 16.1337 25.6785 16.275 25.6021 16.4125C24.6243 18.2153 23.2913 19.6667 21.6031 20.7667C19.9149 21.8667 18.0472 22.4167 16 22.4167ZM16 20.5834C17.7264 20.5834 19.3115 20.1288 20.7552 19.2198C22.199 18.3108 23.3028 17.0847 24.0667 15.5417C23.3028 13.9986 22.199 12.7726 20.7552 11.8636C19.3115 10.9545 17.7264 10.5 16 10.5C14.2736 10.5 12.6886 10.9545 11.2448 11.8636C9.80105 12.7726 8.69723 13.9986 7.93335 15.5417C8.69723 17.0847 9.80105 18.3108 11.2448 19.2198C12.6886 20.1288 14.2736 20.5834 16 20.5834Z" fill="black"/>
</g>
</svg>
